<?xml version="1.0" encoding="UTF-8"?>
<svg xmlns="http://www.w3.org/2000/svg" viewBox="0 0 2344 1687" fill="#FFFFFF" role="img" aria-label="NUXS">
<path d="M0 0 C-0.33 0.99 -0.66 1.98 -1 3 C-1.495 3.165 -1.495 3.165 -4 4 C-4.186 4.907 -4.371 5.815 -4.562 6.75 C-6.537 11.214 -9.235 11.958 -13.59 13.824 C-16 15 -16 15 -19 18 C-21.658 19.351 -24.325 20.683 -27 22 C-29.006 23.324 -31.007 24.657 -33 26 C-33.505 26.248 -33.505 26.248 -36.062 27.5 C-39.083 29.042 -41.364 30.878 -44 33 C-46.315 34.364 -48.649 35.698 -51 37 C-54.921 39.212 -58.447 41.805 -62.031 44.527 C-64.619 46.463 -67.295 48.233 -70 50 C-70.759 50.521 -71.519 51.042 -72.301 51.578 C-72.705 51.854 -72.705 51.854 -74.75 53.25 C-75.508 53.771 -76.266 54.292 -77.047 54.828 C-79 56 -79 56 -81 56 C-81.33 56.99 -81.66 57.98 -82 59 C-83.85 60.211 -85.709 61.412 -87.609 62.543 C-93.705 66.258 -99.472 70.49 -105 75 C-112.132 80.434 -112.132 80.434 -115.875 82.875 C-119.597 85.406 -123.04 88.21 -126.535 91.043 C-128.596 92.68 -130.729 94.227 -132.875 95.75 C-136 98 -136 98 -138.062 100.062 C-140.473 102.473 -143.16 104.114 -146 106 C-148.01 107.487 -150.01 108.987 -152 110.5 C-155.036 112.808 -158.063 115.041 -161.242 117.148 C-164 119 -164 119 -166.125 121.125 C-168 123 -168 123 -172 125 C-173.668 126.665 -175.335 128.332 -177 130 C-179.302 131.729 -181.638 133.416 -184 135.062 C-188.106 137.934 -192.101 140.854 -196 144 C-197.658 145.014 -199.327 146.011 -201 147 C-203.345 148.587 -205.682 150.184 -208.012 151.793 C-210 153 -210 153 -212 153 C-212 153.66 -212 154.32 -212 155 C-214.244 156.254 -216.491 157.503 -218.762 158.707 C-221 160 -221 160 -223.062 162.062 C-225 164 -225 164 -229.188 166.062 C-233 168 -233 168 -234 171 C-231.493 170.902 -228.987 170.805 -226.48 170.707 C-224 171 -224 171 -221 174 C-225.562 182.319 -231.605 188.816 -238.719 195.008 C-240.41 196.485 -242.037 198.037 -243.625 199.625 C-245.688 201.688 -247.797 203.592 -250 205.5 C-254.091 209.053 -257.908 212.643 -261.312 216.875 C-264.034 220.04 -266.914 222.637 -270.082 225.336 C-271.677 226.72 -273.194 228.194 -274.688 229.688 C-277 232 -277 232 -279.562 234 C-282.145 236.119 -283.949 238.372 -286 241 C-289.452 244.633 -293.154 247.795 -297 251 C-297.763 251.763 -298.526 252.526 -299.312 253.312 C-301.644 255.644 -304.028 257.822 -306.5 260 C-310.733 263.743 -314.763 267.462 -318.312 271.875 C-320.454 274.365 -322.458 276.33 -324.938 278.438 C-328.71 281.65 -331.825 285.19 -335 289 C-338.458 292.63 -342.152 295.793 -346 299 C-348.689 301.558 -351.123 304.148 -353.5 307 C-355.869 309.842 -358.351 312.421 -361 315 C-361.99 315.99 -362.98 316.98 -364 318 C-364.66 318 -365.32 318 -366 318 C-366.113 318.371 -366.113 318.371 -366.688 320.25 C-368.275 323.577 -370.06 324.812 -373 327 C-375.688 329.554 -378.125 332.15 -380.5 335 C-383.528 338.634 -386.609 341.938 -390.375 344.812 C-394.872 348.56 -398.503 353.107 -402.125 357.688 C-404.256 360.316 -406.607 362.607 -409 365 C-410.341 366.493 -411.673 367.994 -413 369.5 C-415.899 372.787 -418.901 375.901 -422 379 C-423.506 380.661 -425.006 382.328 -426.5 384 C-429.576 387.441 -432.737 390.737 -436 394 C-438.7 396.971 -441.352 399.983 -444 403 C-444.307 403.349 -444.307 403.349 -445.859 405.113 C-447.578 407.071 -449.29 409.035 -451 411 C-452.011 412.155 -453.021 413.31 -454.062 414.5 C-458.966 420.342 -463.311 426.418 -467.5 432.777 C-470.78 437.638 -474.412 442.24 -478 446.875 C-480.854 450.663 -483.234 454.663 -485.625 458.754 C-487 461 -487 461 -489.125 463.625 C-491.659 466.835 -493.243 470.316 -495 474 C-495.495 474.928 -495.99 475.856 -496.5 476.812 C-498.238 480.506 -499.592 484.27 -500.938 488.121 C-502 491 -502 491 -503.527 494.32 C-505.149 498.372 -505.881 502.131 -506.562 506.438 C-507.249 510.713 -507.964 514.862 -509.066 519.051 C-512.325 532.834 -509.04 546.516 -506 560 C-505.762 561.283 -505.523 562.565 -505.277 563.887 C-503.291 574.509 -500.012 584.628 -493 593 C-492.237 594.237 -491.474 595.475 -490.688 596.75 C-485.368 605.354 -478.696 612.604 -471.805 619.977 C-469.667 622.281 -467.587 624.598 -465.562 627 C-462.322 630.793 -459.014 634.184 -455.125 637.312 C-452 640 -452 640 -449.082 643.383 C-443.875 649.399 -438.196 654.949 -432.562 660.562 C-432.016 661.111 -432.016 661.111 -429.248 663.889 C-423.657 669.473 -418.007 674.867 -412 680 C-410.333 681.667 -408.667 683.333 -407 685 C-406.175 685.66 -405.35 686.32 -404.5 687 C-401.793 689.165 -399.418 691.519 -397 694 C-396.01 694.99 -395.02 695.98 -394 697 C-394 697.66 -394 698.32 -394 699 C-393.257 699.227 -392.515 699.454 -391.75 699.688 C-388.468 701.254 -387.205 703.155 -385 706 C-383.68 706.66 -382.36 707.32 -381 708 C-379.648 709.652 -378.316 711.32 -377 713 C-375.371 714.42 -373.701 715.793 -372 717.125 C-366.705 721.357 -361.748 725.864 -356.824 730.52 C-354.019 732.984 -351.108 734.939 -348 737 C-346.24 738.528 -344.511 740.092 -342.812 741.688 C-339.153 745.07 -335.447 748.316 -331.562 751.438 C-327.522 754.694 -323.677 758.093 -319.875 761.625 C-313.941 767.122 -307.794 772.03 -301.188 776.688 C-298.464 778.664 -296.328 780.599 -294 783 C-288.539 787.872 -282.798 791.975 -276.697 796.031 C-273.116 798.444 -269.971 800.87 -267 804 C-265.341 805.012 -263.674 806.013 -262 807 C-261.01 807.99 -260.02 808.98 -259 810 C-252.494 815.439 -245.715 820.552 -238.98 825.703 C-235.152 828.653 -231.405 831.65 -227.75 834.812 C-221.736 839.925 -215.592 844.655 -209 849 C-207.325 850.323 -205.659 851.657 -204 853 C-197.858 857.69 -191.577 862.168 -185.27 866.633 C-182.441 868.681 -179.723 870.816 -177 873 C-176.588 873.247 -176.588 873.247 -174.5 874.5 C-171.784 876.13 -169.468 878.015 -167 880 C-165.155 881.387 -163.301 882.762 -161.438 884.125 C-160.973 884.467 -160.973 884.467 -158.621 886.195 C-156 888 -156 888 -152 890 C-151.01 890.99 -150.02 891.98 -149 893 C-145.423 895.53 -141.707 897.773 -137.938 900 C-134.383 902.114 -131.181 904.349 -128 907 C-123.937 909.863 -119.714 912.263 -115.359 914.652 C-109.901 917.77 -104.794 921.362 -99.812 925.188 C-96.576 927.575 -93.585 929.247 -90 931 C-88.313 932.307 -86.646 933.642 -85 935 C-83.007 936.344 -81.006 937.675 -79 939 C-77.373 940.143 -75.748 941.289 -74.125 942.438 C-69.841 945.45 -65.445 948.231 -61 951 C-59.804 951.866 -58.608 952.732 -57.375 953.625 C-54 956 -54 956 -50.875 957.562 C-48 959 -48 959 -45.625 960.938 C-42.319 963.535 -38.778 965.17 -35 967 C-34.216 967.474 -33.432 967.949 -32.625 968.438 C-29.294 970.42 -25.834 972.088 -22.359 973.805 C-19.827 975.087 -17.421 976.52 -15 978 C-14.464 978.247 -14.464 978.247 -11.75 979.5 C-9 981 -9 981 -8 984 C-5.687 985.063 -5.687 985.063 -3 986 C-1.68 986.66 -0.36 987.32 1 988 C0.67 988.99 0.34 989.98 0 991 C-9.522 991.381 -9.522 991.381 -15 988 C-17.024 987.469 -19.069 987.014 -21.125 986.625 C-26.637 985.446 -31.266 983.647 -36.316 981.191 C-39.892 979.604 -43.527 978.698 -47.312 977.746 C-50.849 976.764 -54.155 975.378 -57.539 973.969 C-60.786 972.691 -64.093 971.742 -67.445 970.781 C-70.119 969.964 -72.702 968.999 -75.312 968 C-79.38 966.481 -83.38 965.409 -87.625 964.5 C-92.251 963.496 -96.205 962.115 -100.484 960.039 C-104.953 958.193 -109.663 957.172 -114.352 956.027 C-118.077 954.978 -121.454 953.537 -125 952 C-126.464 951.691 -127.929 951.381 -129.438 951.062 C-134 950 -134 950 -137.812 948.062 C-141.332 946.329 -143.992 945.423 -147.75 944.562 C-153.123 943.32 -157.935 941.464 -162.98 939.262 C-167.024 937.572 -171.157 936.248 -175.324 934.902 C-178 934 -178 934 -181.625 932.438 C-184.395 931.258 -186.992 930.385 -189.875 929.562 C-194.801 928.141 -199.314 926.083 -204 924 C-205.659 923.475 -207.326 922.975 -209 922.5 C-213.889 921.112 -218.354 919.065 -223 917 C-224.764 916.456 -226.535 915.935 -228.312 915.438 C-233 914 -233 914 -237 911 C-239.77 910.191 -239.77 910.191 -242.812 909.562 C-247.847 908.4 -251.541 906.642 -256 904 C-257.592 903.482 -259.198 903.006 -260.812 902.562 C-265.362 901.298 -269.263 899.436 -273.438 897.258 C-277.812 895.111 -282.399 893.585 -287 892 C-292.533 890.094 -297.867 888.149 -303.062 885.438 C-306.453 883.669 -309.692 882.405 -313.375 881.375 C-318 880 -318 880 -322 877 C-324.081 876.284 -326.19 875.644 -328.312 875.062 C-333.388 873.574 -337.453 871.728 -342 869 C-348.185 866.206 -354.517 863.804 -360.875 861.438 C-365.394 859.724 -368.991 857.702 -373 855 C-375.729 853.919 -378.487 852.961 -381.262 852.004 C-384.996 850.635 -388.457 848.801 -392 847 C-392.66 846.753 -392.66 846.753 -396 845.5 C-401.479 843.445 -406.557 840.745 -411.75 838.062 C-415.184 836.396 -418.591 834.927 -422.125 833.5 C-426.481 831.717 -430.119 829.674 -434 827 C-436.226 825.982 -438.454 824.966 -440.703 824 C-445.433 821.941 -449.981 819.593 -454.438 817 C-458 815 -458 815 -462.5 813.062 C-466.822 811.082 -470.156 808.765 -474 806 C-476.406 804.708 -478.848 803.515 -481.305 802.324 C-484.198 800.903 -487.039 799.407 -489.875 797.875 C-490.759 797.398 -491.644 796.921 -492.555 796.43 C-495 795 -495 795 -499 792 C-499.588 791.753 -499.588 791.753 -502.562 790.5 C-506 789 -506 789 -509 786 C-510.517 785.023 -512.062 784.088 -513.625 783.188 C-517.734 780.773 -521.709 778.231 -525.656 775.562 C-528.223 773.851 -530.826 772.206 -533.438 770.562 C-537.878 767.752 -542.181 764.792 -546.465 761.75 C-549.118 759.918 -551.826 758.205 -554.562 756.5 C-558.84 753.809 -562.808 750.901 -566.754 747.75 C-569.115 745.911 -571.537 744.2 -574 742.5 C-578.809 739.172 -583.419 735.634 -588 732 C-588.908 731.299 -589.815 730.597 -590.75 729.875 C-593.331 727.724 -595.623 725.377 -598 723 C-600.518 720.711 -603.055 718.445 -605.598 716.184 C-612 710.364 -612 710.364 -612 708 C-613.32 707.34 -614.64 706.68 -616 706 C-622.668 699.088 -628.609 691.669 -633.5 683.402 C-635.15 680.76 -637.043 678.421 -639 676 C-641.774 671.461 -643.918 666.885 -646 662 C-646.233 661.58 -646.233 661.58 -647.414 659.453 C-651.325 652.324 -653.085 645.803 -654.262 637.762 C-655.031 633.841 -656.407 630.651 -658 627 C-659.484 619.938 -659.184 612.808 -659.188 605.625 C-659.2 604.241 -659.212 602.856 -659.225 601.43 C-659.237 592.92 -658.372 585.938 -655.562 577.875 C-654.182 573.905 -653.361 569.938 -652.562 565.812 C-651.502 560.634 -650.233 557.243 -647 553 C-646.794 552.433 -646.794 552.433 -645.75 549.562 C-641.713 539.037 -635.964 527.851 -629 518.938 C-627.308 516.716 -625.65 514.464 -624.125 512.125 C-619.041 504.648 -613.139 497.631 -607 491 C-606.34 491 -605.68 491 -605 491 C-604.773 490.278 -604.546 489.556 -604.312 488.812 C-602.727 485.414 -600.739 483.548 -598 481 C-593.838 476.954 -589.992 472.668 -586.125 468.344 C-583.828 465.811 -581.417 463.417 -579 461 C-574.687 456.301 -570.455 451.537 -566.312 446.688 C-563.372 443.414 -560.418 440.749 -557 438 C-553.653 434.834 -550.615 431.446 -547.562 428 C-544.26 424.304 -540.886 421.091 -537 418 C-534.311 415.442 -531.877 412.852 -529.5 410 C-525.124 404.748 -520.182 400.442 -515 396 C-513.322 394.345 -511.657 392.676 -510 391 C-506 387 -502 383 -498 379 C-497.103 378.091 -496.206 377.182 -495.281 376.246 C-493 374 -493 374 -490.5 372.062 C-487.577 369.651 -485.394 366.933 -483 364 C-481.333 362.333 -479.667 360.667 -478 359 C-476.825 357.674 -475.659 356.34 -474.5 355 C-471.781 351.865 -468.973 348.898 -466 346 C-461.797 341.875 -457.816 337.73 -454.066 333.188 C-451.642 330.621 -448.986 328.376 -446.317 326.07 C-441.851 322.08 -437.662 317.805 -433.438 313.562 C-432.531 312.66 -431.624 311.757 -430.689 310.826 C-425.58 305.709 -420.716 300.48 -416 295 C-415.113 294.134 -414.226 293.267 -413.312 292.375 C-411 290 -411 290 -409 287 C-406.93 283.895 -404.698 281.567 -402 279 C-398.414 275.504 -395.189 271.86 -392 268 C-391.01 267.01 -390.02 266.02 -389 265 C-385.794 260.465 -383.045 255.707 -380.312 250.875 C-379.525 249.491 -378.737 248.106 -377.926 246.68 C-374.958 241.008 -374.838 236.38 -374.812 230.062 C-374.798 228.486 -374.784 226.909 -374.77 225.285 C-375.116 218.851 -376.85 215.31 -381.531 210.777 C-388.862 205.5 -399.031 201.879 -408.078 201.867 C-409.066 201.865 -410.054 201.863 -411.072 201.861 C-412.121 201.865 -413.169 201.87 -414.25 201.875 C-415.33 201.879 -416.411 201.883 -417.524 201.887 C-430.402 201.977 -442.744 202.767 -455.414 205.18 C-461.481 206.265 -467.577 207.074 -473.694 207.822 C-477.604 208.339 -481.039 209.015 -484.715 210.469 C-492.018 213.079 -499.707 213.549 -507.379 214.461 C-514.068 215.305 -519.692 216.555 -526 219 C-530.648 219.855 -535.347 220.307 -540.043 220.816 C-545.358 221.452 -549.253 222.383 -554 225 C-561.452 225.548 -561.452 225.548 -564 223 C-561.754 221.796 -559.508 220.591 -557.262 219.387 C-555 218 -555 218 -552 215 C-549.382 214.082 -546.731 213.259 -544.062 212.5 C-539.114 211.09 -536.158 210.119 -532 207 C-529.606 206.275 -527.185 205.637 -524.75 205.062 C-519.027 203.618 -514.221 201.79 -509 199 C-506 198 -503 197 -500 196 C-498.721 195.361 -497.443 194.721 -496.125 194.062 C-492.072 192.036 -488.056 190.505 -483.793 189 C-477.933 186.902 -472.193 184.49 -466.438 182.125 C-460.357 179.679 -454.152 177.589 -447.953 175.465 C-444.473 174.175 -441.297 172.687 -438 171 C-436.283 170.323 -434.553 169.676 -432.812 169.062 C-431.857 168.721 -430.902 168.379 -429.918 168.027 C-428.047 167.369 -426.175 166.715 -424.301 166.066 C-418.07 163.874 -412.155 161.249 -406.18 158.438 C-402.496 156.772 -398.765 155.4 -394.953 154.062 C-387.215 151.278 -379.56 148.192 -372.062 144.812 C-369.349 143.602 -366.596 142.476 -363.812 141.438 C-360 140 -360 140 -357.156 138.531 C-354.023 137.011 -351.033 136.014 -347.688 135.062 C-342.189 133.423 -337.201 131.412 -332 129 C-324.238 125.73 -316.334 123.067 -308.312 120.5 C-304 119 -304 119 -301.188 117.562 C-298.202 116.099 -295.346 115.083 -292.188 114.062 C-288.459 112.856 -284.873 111.574 -281.312 109.938 C-277 108 -277 108 -272.438 106.5 C-268 105 -268 105 -264 103 C-259.76 100.88 -255.492 99.497 -251 98 C-250.196 97.515 -249.391 97.031 -248.562 96.531 C-245.972 94.983 -243.542 94.025 -240.688 93.062 C-235.911 91.385 -231.516 89.295 -227 87 C-224.339 85.986 -221.672 84.986 -219 84 C-216.807 83.015 -214.613 82.029 -212.422 81.039 C-208.878 79.519 -205.261 78.231 -201.629 76.938 C-199.368 76.131 -197.12 75.288 -194.875 74.438 C-192.064 73.395 -189.227 72.425 -186.375 71.5 C-182 70 -182 70 -179.125 68.5 C-176.241 67.116 -173.71 66.346 -170.625 65.562 C-165.685 64.279 -161.536 62.373 -157 60 C-151.596 57.602 -146.188 55.385 -140.562 53.562 C-135.604 51.864 -131.008 49.715 -126.273 47.48 C-122.431 45.743 -118.531 44.324 -114.555 42.93 C-109.211 40.985 -104.098 38.507 -98.938 36.125 C-93.35 33.635 -87.601 31.57 -81.867 29.445 C-78.788 28.295 -75.733 27.111 -72.688 25.875 C-64.568 22.592 -56.307 19.769 -48 17 C-40.649 14.405 -40.649 14.405 -37.5 12.438 C-35 11 -35 11 -31.125 10.062 C-27 9 -27 9 -23.766 7.07 C-19.718 4.845 -16.119 3.83 -11.625 2.812 C-7.668 1.905 -3.819 0 0 0 Z " fill="#FFFFFF" transform="translate(1860,13)"/>
<path d="M0 0 C7.803 1.219 14.84 2.876 21.938 6.5 C25 8 25 8 29.562 9.5 C34 11 34 11 36.398 12.469 C40.116 14.657 44.049 15.693 48.16 16.938 C51 18 51 18 55 21 C57.332 21.809 57.332 21.809 59.812 22.438 C63.078 23.35 65.394 24.226 68.375 25.938 C72.496 28.282 76.577 29.567 81.078 31 C84.919 32.315 88.409 34.116 92 36 C94.982 37.377 97.989 38.685 101 40 C102.114 40.495 103.227 40.99 104.375 41.5 C108.332 43.137 112.337 44.583 116.367 46.027 C118.478 46.807 120.558 47.672 122.625 48.562 C126 50 126 50 130.625 51.5 C135 53 135 53 137.473 54.484 C139.912 55.947 142.123 56.852 144.812 57.75 C152.388 60.415 159.67 63.732 167 67 C168.506 67.66 170.011 68.32 171.562 69 C176.58 71.261 181.56 73.596 186.543 75.934 C189.892 77.486 193.247 79.019 196.613 80.535 C197.586 80.974 198.559 81.413 199.562 81.865 C201.481 82.729 203.401 83.59 205.323 84.448 C210.386 86.729 215.19 89.213 220 92 C222.663 93.009 225.33 94.009 228 95 C228.79 95.483 229.58 95.967 230.395 96.465 C233.893 98.526 237.54 99.66 241.379 100.938 C244 102 244 102 248 105 C249.444 105.474 250.888 105.949 252.375 106.438 C256.639 107.878 259.31 109.54 263 112 C263.743 112.248 263.743 112.248 267.5 113.5 C271.707 114.902 274.382 116.536 278 119 C280.661 120.014 283.328 121.014 286 122 C288.343 123.316 290.677 124.649 293 126 C294.176 126.495 295.351 126.99 296.562 127.5 C300 129 300 129 302.938 131 C306 133 306 133 310 134.5 C313.861 135.948 316.622 137.678 320 140 C322.658 141.35 325.325 142.684 328 144 C328.402 144.248 328.402 144.248 330.438 145.5 C333 147 333 147 337.562 149 C342 151 342 151 346 154 C347.114 154.474 348.227 154.949 349.375 155.438 C352.934 156.972 355.785 158.857 359 161 C360.155 161.495 361.31 161.99 362.5 162.5 C366.014 164.006 368.848 165.854 372 168 C373.999 169.002 375.999 170.002 378 171 C380.363 172.318 382.717 173.652 385.062 175 C386.25 175.681 387.437 176.361 388.66 177.062 C396.099 181.378 396.099 181.378 399.625 183.812 C403.44 186.285 407.384 188.401 411.387 190.551 C414.374 192.208 417.169 194.091 420 196 C420.99 196.495 421.98 196.99 423 197.5 C426.202 199.101 429.033 201.001 432 203 C434.328 204.343 436.662 205.675 439 207 C440.818 208.033 442.63 209.075 444.438 210.125 C445.302 210.623 446.167 211.12 447.059 211.633 C447.699 212.084 448.34 212.535 449 213 C449 213.66 449 214.32 449 215 C449.866 215.248 450.733 215.495 451.625 215.75 C455.246 217.091 457.826 218.803 461 221 C463.665 222.561 466.339 224.105 469.023 225.633 C469.676 226.084 470.328 226.535 471 227 C471 227.66 471 228.32 471 229 C471.866 229.248 472.733 229.495 473.625 229.75 C477.235 231.087 479.85 232.795 483 235 C483.681 235.413 483.681 235.413 487.125 237.5 C490.313 239.557 492.373 241.373 495 244 C496.927 245.209 498.857 246.415 500.805 247.59 C503.097 249.062 505.187 250.672 507.312 252.375 C510.592 254.983 513.942 257.287 517.5 259.5 C522.614 262.691 527.307 266.225 532 270 C537.408 274.288 542.903 278.371 548.574 282.305 C553.706 285.891 558.63 289.494 563 294 C565.639 296.365 568.322 298.68 571 301 C591.091 318.469 591.091 318.469 599 328 C599.619 328.619 600.237 329.238 600.875 329.875 C603.313 332.313 605.542 334.908 607.797 337.516 C611.548 341.745 615.448 345.838 619.328 349.949 C621.626 352.573 623.318 354.97 625 358 C625.927 359.423 626.865 360.84 627.812 362.25 C628.074 362.641 628.074 362.641 629.395 364.617 C630.426 366.148 631.465 367.675 632.512 369.195 C637.992 377.221 642.651 385.49 646.043 394.613 C647 397 647 397 648.48 399.535 C650.69 404.572 651.314 409.71 652.125 415.125 C652.46 417.274 652.796 419.422 653.133 421.57 C653.276 422.517 653.419 423.463 653.567 424.438 C653.94 426.646 654.457 428.828 655 431 C655.797 443.938 654.973 456.302 652.688 469.062 C652.475 470.257 652.262 471.451 652.042 472.682 C650.979 478.22 649.941 483.108 647 488 C645.272 491.311 643.828 494.477 642.562 498 C641.069 501.823 639.347 504.658 637 508 C636.381 509.093 635.763 510.186 635.125 511.312 C632.607 515.683 629.822 519.823 627 524 C626.526 524.722 626.051 525.444 625.562 526.188 C619.085 536.045 612.352 545.648 604 554 C603.175 554.99 602.35 555.98 601.5 557 C597.412 561.906 592.895 565.921 588 570 C586.313 571.646 584.645 573.312 583 575 C581.333 576.667 579.667 578.333 578 580 C577.175 580.846 576.35 581.691 575.5 582.562 C573.108 584.894 570.606 586.915 568 589 C567.134 589.887 566.267 590.774 565.375 591.688 C563 594 563 594 560 595 C559.34 596.32 558.68 597.64 558 599 C556.364 600.371 554.693 601.701 553 603 C552.237 603.763 551.474 604.526 550.688 605.312 C545.473 610.527 539.785 615.218 534.125 619.938 C533.199 620.71 532.274 621.482 531.32 622.277 C529 624 529 624 527 624 C526.34 625.32 525.68 626.64 525 628 C522.952 629.875 520.839 631.681 518.688 633.438 C514.582 636.804 510.722 640.217 507 644 C505.323 645.532 503.636 647.053 501.938 648.562 C499.6 650.641 497.293 652.698 495.113 654.941 C492.328 657.654 489.316 659.985 486.25 662.375 C485.01 663.343 483.77 664.311 482.492 665.309 C479.805 667.38 477.105 669.424 474.375 671.438 C471.631 673.521 469.383 675.543 467 678 C465.073 679.727 463.121 681.424 461.164 683.117 C459.689 684.401 458.226 685.698 456.773 687.008 C451.215 692 451.215 692 449 692 C448.34 693.32 447.68 694.64 447 696 C445.035 697.708 443.033 699.374 441 701 C440.381 701.619 439.763 702.237 439.125 702.875 C434.834 707.166 430.124 711.03 425.531 714.992 C424.25 716.099 422.969 717.206 421.688 718.312 C421.042 718.87 420.396 719.427 419.73 720 C414.744 724.317 409.88 728.752 405.074 733.27 C403 735 403 735 401 735 C400.34 736.32 399.68 737.64 399 739 C397.364 740.371 395.693 741.701 394 743 C391.143 745.71 388.565 748.507 386 751.5 C382.776 755.262 379.622 758.805 375.625 761.75 C371.791 765.037 368.966 768.931 366 773 C365.493 773.691 364.987 774.382 364.465 775.094 C356.824 786.015 350.485 797.069 352.562 810.688 C356.154 818.963 362.411 826.441 371.094 829.391 C371.821 829.532 371.821 829.532 375.5 830.25 C376.933 830.544 378.367 830.838 379.844 831.141 C381.561 831.435 383.28 831.721 385 832 C386.035 832.179 387.071 832.358 388.138 832.542 C399.668 834.33 411.113 834.35 422.75 834.312 C423.274 834.312 423.274 834.312 425.928 834.311 C443.941 834.285 461.668 833.194 479.591 831.342 C490.956 830.202 502.335 829.904 513.75 829.812 C514.776 829.799 515.801 829.786 516.858 829.773 C521.975 829.767 526.215 829.941 531 832 C531 832.99 531 833.98 531 835 C529.744 835.242 528.489 835.485 527.195 835.734 C511.966 838.758 511.966 838.758 507.062 841.062 C501.622 843.495 495.866 844.005 490.017 844.785 C482.939 845.766 476.141 847.344 469.237 849.162 C464.036 850.521 458.856 851.635 453.562 852.562 C448.749 853.415 444.207 854.477 439.562 856 C434.593 857.624 429.721 858.646 424.562 859.5 C418.041 860.579 411.845 862.064 405.52 863.965 C399.07 865.862 392.527 867.398 386 869 C378.272 870.911 370.554 872.838 362.875 874.938 C355.556 876.917 348.176 878.575 340.763 880.162 C336.674 881.06 332.901 882.038 328.977 883.531 C324.292 885.261 319.72 886.104 314.812 886.938 C307.682 888.217 300.866 889.777 293.98 892.066 C290.783 893.068 287.588 893.796 284.312 894.5 C280.39 895.361 276.859 896.379 273.188 898 C267.607 900.399 261.849 901.192 255.891 902.219 C251.596 903.081 247.767 904.424 243.707 906.031 C240.668 907.119 237.654 907.818 234.5 908.5 C230.363 909.397 226.509 910.47 222.562 912 C218.392 913.605 214.321 914.629 209.938 915.5 C204.829 916.521 200.398 917.956 195.641 920.027 C191.314 921.621 186.824 922.367 182.297 923.191 C178.845 924.038 176.162 925.401 173 927 C170.62 927.702 168.222 928.346 165.812 928.938 C161.176 930.12 156.712 931.398 152.25 933.125 C147.798 934.832 143.527 935.724 138.801 936.312 C136 937 136 937 132.273 938.934 C127.682 941.154 123.288 942.187 118.312 943.062 C112.945 944.019 108.678 945.144 104 948 C101.144 948.726 98.265 949.364 95.375 949.938 C89.183 951.243 83.4 952.75 77.52 955.062 C73.981 956.379 70.366 957.287 66.703 958.191 C64 959 64 959 60.711 960.465 C55.287 962.709 49.687 963.721 43.961 964.938 C40.334 965.91 38.147 967.078 35 969 C32.499 969.72 29.975 970.36 27.438 970.938 C21.384 972.377 15.561 974.077 9.691 976.129 C7.135 976.956 4.634 977.544 2 978.062 C-2 979 -2 979 -6 982 C-11.605 983.401 -17.437 983.854 -23 982 C-23 981.01 -23 980.02 -23 979 C-20.918 977.754 -20.918 977.754 -18.188 976.562 C-13.945 974.707 -12.949 973.932 -10 970 C-7.804 968.996 -5.605 967.992 -3.352 967.125 C-1 966 -1 966 1.301 964.148 C4.605 961.518 8.101 959.638 11.812 957.625 C17.616 954.407 22.805 951.101 28 947 C30.97 944.954 33.985 942.979 37 941 C41.408 938.098 45.716 935.082 50 932 C53.361 929.583 56.718 927.187 60.168 924.898 C62.652 923.233 64.982 921.495 67.312 919.625 C74.334 914.116 81.853 909.425 89.422 904.711 C92.084 902.944 94.528 901.022 97 899 C105.142 892.757 113.642 887.212 122.305 881.723 C126.991 878.728 131.604 875.624 136.207 872.504 C140.159 869.839 144.144 867.296 148.25 864.875 C151.747 862.801 154.854 860.582 158 858 C160.97 855.954 163.985 853.978 167 852 C168.176 851.216 169.351 850.433 170.562 849.625 C171.367 849.089 172.171 848.553 173 848 C171 844 171 844 170 843 C170.432 835.511 172.888 832.646 178.688 828.125 C179.384 827.621 180.08 827.117 180.797 826.598 C183.832 824.397 186.773 822.082 189.727 819.773 C191.196 818.627 192.67 817.486 194.148 816.352 C199.521 812.22 204.736 807.921 209.926 803.562 C213.814 800.322 217.763 797.16 221.723 794.008 C224 792 224 792 227 788 C228.32 787.34 229.64 786.68 231 786 C232.689 784.356 234.353 782.686 236 781 C240.832 776.695 245.754 773.07 251.199 769.598 C255.62 766.726 259.402 763.898 263 760 C266.498 756.413 270.153 753.206 274 750 C276.689 747.442 279.123 744.852 281.5 742 C285.778 736.866 290.593 732.563 295.688 728.25 C300.788 723.906 305.82 719.506 310.781 715.004 C312.793 713.187 314.827 711.401 316.875 709.625 C326.675 701.048 336.013 692.09 345.15 682.813 C349.932 677.979 354.85 673.44 360 669 C363.172 665.942 366.239 662.782 369.312 659.625 C371.73 657.264 374.214 655.044 376.75 652.812 C381.12 648.911 385.049 644.774 388.895 640.359 C390.349 638.729 391.861 637.149 393.414 635.613 C396.311 632.686 398.921 629.597 401.562 626.438 C405.599 621.687 409.734 617.175 414.188 612.812 C418.718 608.371 422.764 603.768 426.703 598.801 C430.121 594.633 433.818 590.739 437.52 586.824 C441.021 582.838 443.682 578.523 446.438 574 C449 570 449 570 451.562 566.938 C454.203 563.755 456.034 560.643 458 557 C458.275 556.502 458.275 556.502 459.664 553.98 C463.074 547.748 466.202 541.528 469 535 C469.376 534.278 469.753 533.556 470.141 532.812 C473.475 526.229 475.391 519.423 477.25 512.312 C477.508 511.326 477.767 510.34 478.033 509.324 C482.217 492.778 483.212 474.383 478 458 C477.415 455.657 476.83 453.313 476.254 450.967 C474.249 442.906 471.841 435.389 468 428 C467.361 426.68 466.721 425.36 466.062 424 C455.484 403.484 455.484 403.484 448 396 C446.998 394.335 445.998 392.668 445 391 C443.592 389.206 442.152 387.436 440.688 385.688 C437.915 382.346 435.202 378.994 432.625 375.5 C430 372 430 372 427 369 C425.654 367.365 424.322 365.717 423 364.062 C418.708 358.778 414.181 353.762 409.555 348.77 C407.499 346.541 405.484 344.292 403.5 342 C398.781 336.563 393.878 331.294 389 326 C387.944 324.85 386.889 323.7 385.801 322.516 C384.753 321.376 383.705 320.237 382.625 319.062 C381.669 318.022 380.712 316.982 379.727 315.91 C377.94 314.003 376.123 312.124 374.273 310.277 C371.977 307.976 370.029 305.537 368 303 C365.446 300.312 362.85 297.875 360 295.5 C356.316 292.43 353.003 289.294 350.062 285.5 C347.651 282.577 344.933 280.394 342 278 C340.332 276.335 338.665 274.668 337 273 C334.776 270.931 332.547 268.87 330.312 266.812 C323.416 260.43 316.758 253.828 310.167 247.13 C307.024 243.95 303.931 240.943 300.473 238.098 C298 236 298 236 298 234 C296.68 233.34 295.36 232.68 294 232 C291.709 229.983 289.464 227.913 287.25 225.812 C281.396 220.298 275.549 214.823 269.25 209.812 C266.996 207.997 265.014 206.077 263 204 C259.818 200.736 256.565 197.834 253 195 C252.394 194.386 251.788 193.773 251.164 193.141 C248.863 190.865 246.454 188.847 243.938 186.812 C242.968 186.025 241.999 185.237 241 184.426 C239.063 182.86 237.126 181.295 235.188 179.73 C229.802 175.362 224.598 170.861 219.473 166.191 C216.207 163.297 212.8 160.605 209.375 157.902 C205.814 155.05 202.409 152.032 199 149 C188.937 140.152 178.797 131.401 168.391 122.957 C166.337 121.276 164.321 119.548 162.312 117.812 C159.322 115.273 156.255 112.898 153.102 110.566 C150.876 108.908 148.686 107.209 146.5 105.5 C140.993 101.209 135.514 96.948 129.625 93.188 C125.102 90.227 121.253 86.708 117.293 83.043 C114.696 80.729 111.922 78.878 109 77 C107.667 75.667 106.333 74.333 105 73 C103.336 71.995 101.669 70.996 100 70 C98.257 68.769 96.529 67.518 94.812 66.25 C86.943 60.487 79 54.964 70.746 49.766 C65.001 46.072 59.463 42.097 54 38 C52.845 37.34 51.69 36.68 50.5 36 C47 34 47 34 43 31 C41.989 30.505 40.979 30.01 39.938 29.5 C37 28 37 28 34 25 C33.258 24.67 33.258 24.67 29.5 23 C25 21 25 21 22 18 C20.721 17.361 19.442 16.721 18.125 16.062 C14 14 14 14 11.438 11.938 C9 10 9 10 5.312 8.688 C2 7 2 7 0.562 3.312 C0.377 2.219 0.191 1.126 0 0 Z " fill="#FFFFFF" transform="translate(509,29)"/>
<path d="M0 0 C5.017 1.719 9.962 2.314 15.215 2.887 C24.057 3.959 32.183 5.826 40.723 8.391 C44.418 9.412 47.917 10.043 51.715 10.512 C57.11 11.224 61.363 12.875 66.219 15.285 C68.777 16.512 68.777 16.512 73.465 18.074 C77.833 19.53 81.691 21.403 85.777 23.512 C86.974 24.007 88.17 24.502 89.402 25.012 C92.836 26.538 95.678 28.401 98.777 30.512 C99.767 31.007 100.757 31.502 101.777 32.012 C104.975 33.61 107.805 35.53 110.777 37.512 C111.685 37.945 112.592 38.378 113.527 38.824 C117.296 40.781 120.6 43.144 124.051 45.609 C127.697 48.153 131.455 50.497 135.234 52.836 C137.893 54.588 140.32 56.489 142.777 58.512 C143.605 59.186 144.432 59.86 145.285 60.555 C147.125 62.062 148.965 63.57 150.805 65.078 C152.752 66.673 154.703 68.264 156.656 69.852 C163.979 75.81 171.097 81.831 177.777 88.512 C179.015 89.543 180.252 90.574 181.527 91.637 C196.901 105.005 200.956 117.547 200.965 137.324 C200.977 138.748 200.989 140.172 201.002 141.639 C201.018 153.216 200.719 161.635 192.777 170.512 C190.027 171.762 190.027 171.762 187.777 172.512 C187.117 173.832 186.457 175.152 185.777 176.512 C182.777 179.512 182.777 179.512 180.777 179.512 C180.117 180.832 179.457 182.152 178.777 183.512 C177.141 184.882 175.471 186.212 173.777 187.512 C173.014 188.275 172.251 189.038 171.465 189.824 C168.053 193.236 164.424 196.355 160.777 199.512 C160.148 200.069 159.519 200.625 158.871 201.199 C154.117 205.408 149.235 209.443 144.309 213.449 C142.41 214.996 140.527 216.562 138.652 218.137 C129.107 226.022 119.12 233.384 109.09 240.637 C105.662 243.116 102.291 245.647 98.965 248.262 C90.733 254.71 82.712 259.2 72.777 262.512 C71.31 263.308 69.852 264.122 68.402 264.949 C62.063 268.279 55.141 269.253 48.168 270.52 C43.777 271.512 43.777 271.512 40.867 273.039 C35.645 275.528 29.975 275.651 24.271 276.24 C19.332 276.819 15.015 277.677 10.379 279.508 C4.288 281.879 -1.686 282.535 -8.16 283.137 C-10.357 283.351 -12.554 283.572 -14.75 283.801 C-15.706 283.891 -16.663 283.98 -17.648 284.073 C-20.223 284.512 -20.223 284.512 -24.223 286.512 C-34.468 287.938 -34.468 287.938 -39.223 286.512 C-39.223 285.852 -39.223 285.192 -39.223 284.512 C-37.965 283.893 -36.706 283.274 -35.41 282.637 C-31.223 280.512 -31.223 280.512 -28.223 276.512 C-24.57 275.133 -24.57 275.133 -20.285 273.949 C-15.316 272.565 -12.394 271.64 -8.223 268.512 C-6.453 267.809 -4.658 267.165 -2.848 266.574 C1.537 265.048 4.993 263.24 8.777 260.512 C10.777 259.512 12.777 258.512 14.777 257.512 C20.293 254.272 24.953 250.693 29.777 246.512 C34.498 242.882 39.289 239.346 44.082 235.812 C47.351 233.389 50.493 230.906 53.527 228.199 C56.777 225.512 56.777 225.512 60.777 224.512 C61.437 223.192 62.097 221.872 62.777 220.512 C64.754 219.144 66.761 217.82 68.777 216.512 C70.603 215.049 72.414 213.568 74.215 212.074 C77.309 209.509 80.371 207.09 83.652 204.762 C86.777 202.512 86.777 202.512 89.125 200.156 C91.741 197.548 94.456 195.255 97.34 192.949 C100.678 190.278 103.789 187.568 106.777 184.512 C112.811 179.037 119.156 174.04 125.605 169.062 C128.189 166.985 130.502 164.911 132.777 162.512 C135.336 159.886 137.861 157.444 140.715 155.137 C144.155 152.188 146.941 149.041 149.777 145.512 C150.437 144.749 151.097 143.985 151.777 143.199 C153.413 138.802 152.379 134.834 150.777 130.512 C148.215 127.574 148.215 127.574 145.777 125.512 C145.447 124.522 145.117 123.532 144.777 122.512 C143.457 121.852 142.137 121.192 140.777 120.512 C138.885 118.867 137.035 117.173 135.215 115.449 C130.365 110.931 125.396 106.66 120.238 102.5 C115.797 98.911 111.507 95.152 107.215 91.387 C102.373 87.141 97.473 82.962 92.578 78.777 C89.98 76.551 87.396 74.311 84.82 72.059 C76.306 64.617 67.641 57.752 58.348 51.301 C56.648 50.118 54.955 48.925 53.27 47.723 C48.291 44.18 43.225 40.945 37.957 37.852 C35.385 36.271 33.12 34.411 30.777 32.512 C28.449 31.17 26.114 29.838 23.777 28.512 C21.338 27.014 18.901 25.514 16.465 24.012 C10.672 20.517 5.103 17.861 -1.223 15.512 C-2.023 15.024 -2.824 14.537 -3.648 14.035 C-7.132 11.973 -10.774 10.848 -14.602 9.574 C-17.223 8.512 -17.223 8.512 -21.223 5.512 C-23.447 4.708 -25.701 3.983 -27.973 3.324 C-29.143 2.98 -30.314 2.636 -31.52 2.281 C-32.412 2.027 -33.304 1.773 -34.223 1.512 C-34.223 -1.488 -34.223 -1.488 -33.223 -2.488 C-21.896 -4.309 -10.841 -3.821 0 0 Z " fill="#FFFFFF" transform="translate(1313.22265625,1203.48828125)"/>
<path d="M0 0 C-2.246 3.369 -3.076 3.641 -6.75 4.938 C-9.884 6.109 -12.176 7.124 -14.938 9.062 C-18.648 11.41 -22.174 12.17 -26.402 13.223 C-29.751 14.225 -32.15 15.999 -35 18 C-37.536 19.095 -40.104 20.078 -42.684 21.066 C-45.318 22.128 -47.601 23.485 -50 25 C-51.341 25.66 -52.681 26.32 -54.062 27 C-58 29 -58 29 -62 32 C-63.196 32.578 -64.392 33.155 -65.625 33.75 C-70.79 36.407 -75.313 39.589 -80 43 C-80.913 43.655 -81.825 44.31 -82.766 44.984 C-87.093 48.103 -91.371 51.264 -95.562 54.562 C-98.619 56.967 -101.734 59.232 -104.938 61.438 C-109.376 64.502 -113.559 67.812 -117.742 71.215 C-120.391 73.309 -123.192 75.128 -126 77 C-126.603 77.605 -127.207 78.209 -127.828 78.832 C-130.22 81.219 -132.747 83.314 -135.375 85.438 C-138.285 87.798 -141.189 90.158 -144.062 92.562 C-146.583 94.654 -149.127 96.707 -151.688 98.75 C-152.12 99.096 -152.12 99.096 -154.309 100.848 C-156.069 102.255 -157.831 103.659 -159.598 105.059 C-186.809 126.9 -186.809 126.9 -188.625 139.25 C-187.907 143.56 -186.725 145.612 -184 149 C-183.216 150.031 -182.432 151.062 -181.625 152.125 C-178.91 155.099 -176.375 156.813 -173 159 C-170.234 161.203 -167.513 163.457 -164.789 165.711 C-162.41 167.664 -160.004 169.564 -157.562 171.438 C-153.969 174.208 -150.478 177.085 -147 180 C-142.084 184.118 -137.089 188.1 -132 192 C-123.845 198.293 -123.845 198.293 -119.938 201.562 C-116.388 204.508 -112.704 207.255 -109 210 C-104.839 213.104 -100.704 216.226 -96.625 219.438 C-91.875 223.145 -86.958 226.579 -82 230 C-80.207 231.248 -78.416 232.498 -76.625 233.75 C-75.834 234.302 -75.042 234.853 -74.227 235.422 C-72.125 236.912 -70.061 238.454 -68 240 C-66.342 241.014 -64.673 242.011 -63 243 C-56.24 247.169 -49.627 251.53 -43.062 256 C-38.784 258.794 -34.392 261.39 -30 264 C-29.161 264.516 -28.322 265.031 -27.457 265.562 C-23.062 268.134 -18.313 270.021 -13.629 272.004 C-4.571 275.899 -4.571 275.899 -1 279 C-1.352 281.629 -1.352 281.629 -2 284 C-14.517 284.475 -26.279 282.401 -38.312 279 C-44.25 277.329 -50.092 276.326 -56.188 275.5 C-62.752 274.601 -68.817 273.339 -75.035 271.027 C-78.544 269.812 -82.073 268.975 -85.688 268.125 C-107.128 262.904 -107.128 262.904 -115 257 C-116.729 256.318 -118.482 255.696 -120.25 255.125 C-125.345 253.339 -129.499 251.024 -134 248 C-135.915 246.789 -137.831 245.58 -139.75 244.375 C-142.958 242.35 -145.957 240.282 -149 238 C-149 237.34 -149 236.68 -149 236 C-149.726 235.737 -150.451 235.474 -151.199 235.203 C-154.047 233.98 -156.298 232.554 -158.812 230.75 C-159.677 230.133 -160.542 229.515 -161.434 228.879 C-163.766 227.171 -166.075 225.438 -168.375 223.688 C-172 221 -172 221 -176 219 C-177.667 217.333 -179.333 215.667 -181 214 C-182.827 212.605 -184.657 211.214 -186.508 209.852 C-195.206 203.389 -203.588 196.656 -211.531 189.285 C-213.777 187.207 -216.06 185.188 -218.375 183.188 C-221.379 180.546 -224.211 177.862 -227 175 C-228.011 174.072 -229.021 173.144 -230.062 172.188 C-235.611 166.167 -237.506 160.626 -237.531 152.512 C-237.536 150.918 -237.542 149.324 -237.547 147.682 C-237.531 146.034 -237.516 144.386 -237.5 142.688 C-237.515 141.051 -237.531 139.415 -237.547 137.729 C-237.495 121.635 -234.396 112.382 -222.375 101.812 C-221.261 100.884 -220.148 99.956 -219 99 C-218.196 98.196 -217.391 97.391 -216.562 96.562 C-211.074 91.074 -205.023 86.165 -199.125 81.125 C-194.925 77.534 -190.769 73.912 -186.688 70.188 C-182.299 66.208 -177.714 62.582 -173 59 C-171.52 57.834 -170.041 56.667 -168.562 55.5 C-164.604 52.417 -160.528 49.538 -156.402 46.684 C-154.237 45.166 -152.115 43.587 -150 42 C-142.902 36.677 -136.068 31.774 -128 28 C-126.721 27.361 -125.443 26.721 -124.125 26.062 C-122.764 25.382 -121.402 24.701 -120 24 C-119.286 23.608 -118.572 23.216 -117.836 22.812 C-111.362 19.348 -104.706 17.219 -97.68 15.125 C-94 14 -94 14 -90 12.375 C-84.852 10.605 -79.675 9.758 -74.32 8.816 C-70.141 8.027 -66.06 7.044 -61.938 6 C-54.085 4.097 -46.26 3.033 -38.25 2.081 C-33.018 1.445 -27.988 0.637 -22.875 -0.688 C-15.212 -2.621 -7.195 -3.598 0 0 Z " fill="#FFFFFF" transform="translate(1767,1203)"/>
<path d="M0 0 C0.984 0.001 1.968 0.002 2.982 0.003 C6.22 0.008 9.459 0.019 12.698 0.031 C15.015 0.036 17.332 0.04 19.649 0.044 C25.734 0.056 31.819 0.073 37.904 0.092 C43.68 0.109 49.456 0.12 55.232 0.132 C82.66 0.19 110.088 0.289 137.516 0.39 C152.623 0.446 167.731 0.495 182.838 0.536 C193.574 0.566 204.311 0.603 215.047 0.646 C221.424 0.671 227.8 0.693 234.177 0.706 C240.127 0.719 246.076 0.741 252.026 0.77 C254.208 0.779 256.39 0.785 258.571 0.787 C261.541 0.79 264.51 0.806 267.479 0.824 C268.346 0.822 269.214 0.821 270.107 0.819 C274.363 0.859 276.64 1.157 280.532 3.103 C282.762 7.564 282.83 10.102 282.844 15.04 C282.861 16.431 282.878 17.822 282.895 19.255 C282.523 23.196 281.821 24.956 279.532 28.103 C278.975 29.072 278.418 30.042 277.844 31.04 C270.101 41.295 258.201 44.906 245.858 45.542 C245.425 45.562 245.425 45.562 243.231 45.66 C242.77 45.681 242.77 45.681 240.434 45.788 C229.402 46.249 218.375 46.22 207.335 46.185 C204.99 46.181 202.646 46.178 200.301 46.175 C195.299 46.169 190.296 46.159 185.294 46.147 C177.38 46.129 169.467 46.12 161.553 46.112 C139.066 46.088 116.58 46.051 94.093 46.007 C81.639 45.982 69.184 45.965 56.729 45.955 C48.864 45.949 41 45.933 33.135 45.911 C28.251 45.899 23.366 45.896 18.482 45.895 C16.22 45.893 13.958 45.887 11.695 45.878 C8.605 45.866 5.516 45.866 2.426 45.869 C1.533 45.863 0.641 45.856 -0.278 45.849 C-10.758 45.892 -20.32 48.137 -27.468 56.103 C-28.128 56.763 -28.788 57.423 -29.468 58.103 C-33.385 70.463 -34.128 82.135 -28.468 94.103 C-26.074 96.236 -26.074 96.236 -23.468 98.103 C-22.855 98.766 -22.241 99.429 -21.608 100.111 C-14.625 106.61 -2.866 105.511 6.004 105.428 C7.414 105.426 8.824 105.425 10.277 105.424 C14.931 105.417 19.585 105.389 24.239 105.361 C27.521 105.353 30.803 105.346 34.085 105.341 C41.863 105.326 49.642 105.297 57.421 105.262 C72.007 105.197 86.593 105.157 101.179 105.123 C104.508 105.115 107.836 105.106 111.164 105.097 C134.276 105.038 157.358 105.223 180.46 105.88 C188.127 106.095 195.783 106.137 203.453 106.096 C220.809 106.124 239.24 107.202 254.532 116.103 C255.872 116.639 257.213 117.175 258.594 117.728 C261.532 119.103 261.532 119.103 262.532 122.103 C264.186 122.799 265.854 123.464 267.532 124.103 C270.532 127.103 270.532 127.103 270.532 129.103 C271.852 129.763 273.172 130.423 274.532 131.103 C277.532 135.103 277.532 135.103 277.532 137.103 C278.852 137.763 280.172 138.423 281.532 139.103 C283.09 141.87 284.434 144.528 285.719 147.415 C286.074 148.175 286.429 148.935 286.795 149.718 C290.979 158.855 290.75 167.335 290.772 177.221 C290.782 179.83 290.813 182.439 290.844 185.048 C290.851 186.728 290.856 188.408 290.86 190.087 C290.869 191.6 290.878 193.113 290.888 194.672 C290.237 202.764 286.921 209.81 283.532 217.103 C282.933 218.423 282.335 219.743 281.719 221.103 C271.609 239.59 253.604 251.834 233.172 256.66 C230.475 257.112 227.975 257.231 225.242 257.234 C224.19 257.238 223.137 257.242 222.053 257.246 C221.478 257.246 221.478 257.246 218.568 257.243 C217.955 257.245 217.955 257.245 214.851 257.252 C210.73 257.261 206.609 257.263 202.488 257.264 C199.539 257.269 196.589 257.274 193.639 257.279 C184.782 257.294 175.925 257.3 167.069 257.304 C162.898 257.307 158.728 257.311 154.558 257.315 C140.7 257.327 126.841 257.337 112.983 257.34 C112.539 257.341 112.539 257.341 110.296 257.341 C109.407 257.341 108.519 257.342 107.603 257.342 C105.802 257.342 104.001 257.343 102.2 257.343 C101.307 257.343 100.414 257.344 99.493 257.344 C85.005 257.348 70.516 257.365 56.028 257.388 C41.157 257.412 26.286 257.425 11.415 257.426 C3.063 257.427 -5.288 257.433 -13.64 257.451 C-21.489 257.467 -29.338 257.469 -37.187 257.46 C-40.073 257.46 -42.96 257.464 -45.846 257.474 C-49.775 257.487 -53.703 257.481 -57.632 257.47 C-58.784 257.478 -59.936 257.486 -61.123 257.495 C-62.173 257.488 -63.223 257.482 -64.305 257.475 C-64.758 257.475 -64.758 257.475 -67.054 257.477 C-69.468 257.103 -69.468 257.103 -73.468 254.103 C-76.101 246.863 -74.805 237.214 -72.468 230.103 C-70.44 227.091 -68.064 224.631 -65.468 222.103 C-65.174 221.781 -65.174 221.781 -63.687 220.154 C-52.469 208.817 -33.396 211.686 -18.749 211.734 C-16.144 211.732 -13.54 211.728 -10.935 211.723 C-5.346 211.714 0.243 211.715 5.832 211.723 C14.674 211.734 23.516 211.722 32.358 211.706 C54.315 211.67 76.271 211.664 98.227 211.666 C115.305 211.668 132.384 211.661 149.463 211.626 C158.248 211.609 167.034 211.611 175.819 211.627 C181.287 211.633 186.755 211.622 192.222 211.607 C194.753 211.603 197.283 211.606 199.813 211.617 C203.275 211.63 206.736 211.619 210.198 211.602 C211.192 211.611 212.186 211.621 213.21 211.631 C222.997 211.532 231.255 208.832 238.68 202.372 C244.477 195.267 246.353 189.585 246.157 180.603 C246.176 179.717 246.195 178.832 246.215 177.919 C246.155 169.709 243.203 162.834 236.969 157.228 C227.798 149.753 213.685 149.973 202.457 149.989 C201.59 149.989 200.722 149.989 199.828 149.989 C196.945 149.99 194.062 149.997 191.179 150.005 C189.102 150.007 187.025 150.009 184.948 150.01 C180.486 150.013 176.023 150.019 171.561 150.028 C164.495 150.041 157.43 150.047 150.364 150.052 C134.084 150.064 117.803 150.086 101.523 150.108 C86.611 150.128 71.699 150.146 56.787 150.156 C49.773 150.161 42.76 150.171 35.747 150.185 C31.369 150.192 26.992 150.196 22.614 150.198 C20.596 150.2 18.578 150.203 16.56 150.209 C-12.625 150.286 -12.625 150.286 -25.968 146.79 C-26.809 146.59 -27.649 146.389 -28.515 146.183 C-33.555 144.903 -37.296 143.174 -41.468 140.103 C-42.108 139.793 -42.108 139.793 -45.343 138.228 C-51.592 135.009 -57.144 132.076 -59.468 125.103 C-60.788 124.443 -62.108 123.783 -63.468 123.103 C-69.305 116.325 -73.298 109.576 -74.933 100.759 C-75.468 98.103 -75.468 98.103 -76.472 95.697 C-81.899 81.565 -78.794 63.013 -74.468 49.103 C-74.133 47.882 -73.798 46.661 -73.453 45.404 C-71.829 39.648 -70.397 35.688 -66.468 31.103 C-66.231 30.69 -66.231 30.69 -65.031 28.603 C-57.49 16.537 -43.384 8.919 -30.468 4.103 C-29.004 3.546 -27.54 2.989 -26.031 2.415 C-17.532 -0.03 -8.796 -0.046 0 0 Z " fill="#FFFFFF" transform="translate(2038.4683837890625,1214.8971252441406)"/>
<path d="M0 0 C0.788 0.733 1.575 1.467 2.387 2.223 C3.35 3.09 4.313 3.958 5.305 4.852 C7.182 6.555 9.042 8.277 10.879 10.023 C13.27 12.12 15.64 13.641 18.387 15.223 C19.72 16.556 21.053 17.889 22.387 19.223 C26.247 22.197 30.144 25.053 34.137 27.848 C37.387 30.223 37.387 30.223 39.234 32.086 C42.575 35.402 46.325 38.197 50.023 41.102 C52.387 43.223 52.387 43.223 53.387 46.223 C54.707 46.883 56.027 47.543 57.387 48.223 C59.019 49.436 60.621 50.69 62.199 51.973 C63.081 52.688 63.963 53.404 64.871 54.141 C66.916 55.833 68.936 57.555 70.949 59.285 C74.295 62.144 77.73 64.831 81.215 67.516 C83.065 68.97 84.858 70.496 86.637 72.035 C89.906 74.814 93.229 77.431 96.637 80.035 C105.342 86.696 113.741 93.579 121.844 100.961 C125.423 104.144 129.136 107.151 132.859 110.164 C134.939 111.858 136.981 113.597 139.012 115.348 C141.635 117.582 144.278 119.694 147.012 121.785 C150.404 124.393 153.36 127.196 156.387 130.223 C160.051 133.072 163.68 135.765 167.574 138.285 C170.567 140.347 172.817 142.653 175.387 145.223 C178.673 147.948 182.037 150.575 185.387 153.223 C192.082 158.575 198.533 164.09 204.781 169.961 C207.512 172.331 210.362 174.246 213.387 176.223 C215.007 177.472 216.612 178.743 218.199 180.035 C219.058 180.726 219.916 181.417 220.801 182.129 C222.467 183.478 224.128 184.831 225.785 186.191 C233.165 192.135 240.784 195.687 250.387 196.223 C253.961 193.84 253.912 193.304 254.387 189.223 C254.46 187.341 254.483 185.458 254.467 183.575 C254.461 182.457 254.455 181.34 254.449 180.188 C254.444 179.582 254.444 179.582 254.418 176.516 C254.372 165.723 254.428 154.939 254.605 144.148 C254.628 142.751 254.65 141.354 254.672 139.915 C254.719 136.981 254.766 134.047 254.813 131.114 C255.175 108.608 255.438 86.114 255.328 63.606 C255.313 60.476 255.3 57.346 255.287 54.216 C255.25 45.049 255.204 35.883 255.112 26.716 C255.078 22.926 255.061 19.135 255.047 15.344 C255.036 13.573 255.019 11.801 254.994 10.03 C254.961 7.603 254.954 5.176 254.948 2.748 C254.943 2.066 254.943 2.066 254.912 -1.384 C255.461 -5.309 256.257 -6.439 259.387 -8.777 C265.871 -11.585 272.443 -11.108 279.387 -11.09 C280.016 -11.098 280.016 -11.098 283.199 -11.139 C283.808 -11.139 283.808 -11.139 286.887 -11.141 C287.99 -11.144 289.094 -11.147 290.23 -11.15 C295.342 -10.547 298.521 -9.076 301.387 -4.777 C301.583 -1.77 301.66 1.146 301.647 4.154 C301.651 5.079 301.655 6.003 301.659 6.956 C301.669 10.067 301.665 13.179 301.661 16.29 C301.666 18.516 301.671 20.741 301.677 22.967 C301.69 29.022 301.691 35.078 301.688 41.134 C301.687 46.186 301.692 51.239 301.697 56.291 C301.708 68.21 301.708 80.13 301.702 92.049 C301.696 104.35 301.709 116.651 301.73 128.952 C301.748 139.506 301.754 150.061 301.75 160.616 C301.749 166.922 301.751 173.228 301.765 179.535 C301.778 185.467 301.776 191.4 301.763 197.333 C301.76 199.51 301.763 201.687 301.771 203.864 C301.782 206.838 301.774 209.81 301.761 212.783 C301.768 213.644 301.776 214.505 301.783 215.392 C301.707 223.881 298.652 229.703 293.387 236.223 C290.762 237.973 290.762 237.973 288.387 239.223 C287.397 240.213 286.407 241.203 285.387 242.223 C280.626 244.941 275.4 244.546 270.074 244.559 C269.069 244.565 268.064 244.572 267.028 244.579 C264.9 244.589 262.771 244.594 260.643 244.593 C257.426 244.598 254.209 244.634 250.992 244.672 C240.2 244.732 230.466 244.587 220.387 240.223 C219.218 239.73 218.048 239.238 216.844 238.73 C214.012 237.25 211.189 235.759 208.387 234.223 C207.533 233.771 206.68 233.32 205.801 232.855 C199.754 229.479 194.915 225.286 189.93 220.492 C187.525 218.346 185.167 216.826 182.387 215.223 C180.697 213.58 179.035 211.908 177.387 210.223 C171.475 204.659 165.177 199.707 158.719 194.797 C154.487 191.527 150.392 188.111 146.301 184.668 C143.434 182.263 140.541 179.895 137.637 177.535 C130.849 171.985 124.361 166.204 117.949 160.223 C112.941 155.588 107.85 151.3 102.387 147.223 C100.239 145.58 98.093 143.934 95.949 142.285 C95.396 141.86 95.396 141.86 92.598 139.711 C88.921 136.861 85.293 133.955 81.672 131.035 C79.484 129.3 77.26 127.629 75.012 125.973 C72.173 123.819 69.845 121.76 67.387 119.223 C65.063 117.212 62.728 115.213 60.387 113.223 C59.799 112.707 59.799 112.707 56.824 110.098 C39.794 95.188 39.794 95.188 31.586 88.922 C27.104 85.459 22.761 81.82 18.387 78.223 C16.47 76.66 14.554 75.097 12.637 73.535 C9.567 71.025 6.516 68.499 3.512 65.91 C1.536 64.211 -0.482 62.557 -2.551 60.973 C-4.613 59.223 -4.613 59.223 -4.613 57.223 C-5.342 56.988 -6.07 56.753 -6.82 56.512 C-10.083 55.006 -11.815 53.183 -14.301 50.598 C-22.586 42.895 -33.407 36.959 -44.908 37.135 C-45.98 37.148 -47.051 37.16 -48.154 37.173 C-48.56 37.182 -48.56 37.182 -50.613 37.223 C-50.617 38.249 -50.62 39.275 -50.623 40.332 C-50.704 65.286 -50.797 90.24 -50.901 115.194 C-50.951 127.261 -50.997 139.329 -51.035 151.396 C-51.068 161.913 -51.108 172.429 -51.156 182.946 C-51.181 188.515 -51.203 194.085 -51.217 199.655 C-51.229 204.896 -51.251 210.136 -51.281 215.377 C-51.29 217.302 -51.295 219.227 -51.297 221.152 C-51.301 223.777 -51.316 226.403 -51.335 229.029 C-51.338 229.764 -51.338 229.764 -51.352 233.484 C-51.593 236.932 -51.944 239.218 -53.613 242.223 C-57.997 244.353 -62.056 244.469 -66.875 244.453 C-68.241 244.451 -69.607 244.449 -71.014 244.447 C-72.428 244.435 -73.843 244.423 -75.301 244.41 C-76.014 244.41 -76.014 244.41 -79.623 244.408 C-90.192 244.363 -90.192 244.363 -93.613 243.223 C-97.177 237.877 -96.74 232.715 -96.747 226.395 C-96.749 225.505 -96.752 224.616 -96.754 223.7 C-96.76 220.719 -96.759 217.738 -96.759 214.758 C-96.762 212.621 -96.765 210.483 -96.769 208.346 C-96.778 202.538 -96.78 196.73 -96.781 190.921 C-96.781 187.29 -96.783 183.658 -96.786 180.027 C-96.795 167.349 -96.799 154.671 -96.799 141.993 C-96.798 130.191 -96.809 118.389 -96.824 106.587 C-96.837 96.445 -96.843 86.303 -96.842 76.161 C-96.842 70.108 -96.845 64.055 -96.855 58.002 C-96.865 52.303 -96.865 46.603 -96.858 40.904 C-96.857 38.819 -96.859 36.735 -96.865 34.65 C-96.95 3.66 -96.95 3.66 -87.547 -4.746 C-82.893 -7.969 -78.098 -9.544 -72.613 -10.777 C-71.892 -10.949 -71.171 -11.12 -70.429 -11.297 C-48.74 -14.998 -17.67 -14.768 0 0 Z " fill="#FFFFFF" transform="translate(112.61328125,1227.77734375)"/>
<path d="M0 0 C1.419 2.838 1.113 5.205 1.1 8.379 C1.099 9.061 1.099 9.061 1.091 12.512 C1.083 14.018 1.074 15.524 1.066 17.075 C1.059 19.499 1.052 21.923 1.045 24.347 C1.036 26.96 1.025 29.573 1.014 32.186 C0.991 37.638 0.978 43.09 0.966 48.542 C0.933 64.048 0.892 79.555 0.829 95.061 C0.794 103.619 0.77 112.178 0.758 120.737 C0.752 125.263 0.739 129.789 0.713 134.315 C0.684 139.377 0.679 144.439 0.675 149.501 C0.663 150.985 0.651 152.469 0.638 153.997 C0.665 167.917 2.304 180.396 12 191 C15.484 193.529 19.048 195.317 23 197 C24.134 197.557 25.269 198.114 26.438 198.688 C35.764 202.123 44.737 203.485 54.638 203.679 C55.874 203.712 57.11 203.745 58.384 203.779 C75.549 204.185 92.723 204.146 109.892 204.134 C114.822 204.132 119.752 204.134 124.682 204.136 C132.932 204.138 141.182 204.135 149.433 204.13 C158.939 204.125 168.446 204.127 177.952 204.132 C186.176 204.137 194.4 204.137 202.624 204.135 C207.51 204.133 212.396 204.133 217.282 204.136 C221.862 204.139 226.441 204.137 231.021 204.131 C233.483 204.129 235.944 204.132 238.406 204.136 C250.368 204.113 261.762 203.668 273.375 200.688 C274.224 200.487 275.074 200.287 275.949 200.08 C281.027 198.805 284.806 197.108 289 194 C290.114 193.464 291.227 192.928 292.375 192.375 C304.852 184.2 307.838 170.921 310 157 C310.364 151.739 310.352 146.511 310.293 141.24 C310.289 139.744 310.284 138.247 310.28 136.706 C310.265 132.653 310.238 128.6 310.205 124.547 C310.175 120.286 310.165 116.026 310.153 111.766 C310.12 100.969 310.061 90.172 310 79.375 C309.934 67.681 309.872 55.986 309.84 44.291 C309.827 40.058 309.808 35.824 309.775 31.59 C309.739 26.882 309.721 22.174 309.707 17.466 C309.692 16.068 309.676 14.669 309.66 13.229 C309.66 12.588 309.66 12.588 309.659 9.347 C309.656 8.791 309.656 8.791 309.639 5.978 C310.055 2.545 310.887 0.724 313 -2 C320.394 -5.697 328.516 -5.182 336.625 -5.188 C337.636 -5.2 338.646 -5.212 339.688 -5.225 C349.512 -5.244 349.512 -5.244 354 -3 C357.362 1.483 357.38 2.616 357.401 8.01 C357.414 9.464 357.427 10.917 357.44 12.415 C357.439 14.01 357.437 15.605 357.436 17.249 C357.445 18.946 357.455 20.643 357.466 22.34 C357.493 26.955 357.5 31.569 357.502 36.183 C357.504 39.072 357.51 41.961 357.518 44.849 C357.546 54.945 357.558 65.04 357.556 75.136 C357.554 84.514 357.586 93.892 357.633 103.27 C357.673 111.341 357.688 119.412 357.687 127.482 C357.686 132.294 357.694 137.104 357.726 141.916 C357.755 146.454 357.755 150.992 357.734 155.53 C357.729 157.961 357.754 160.392 357.78 162.824 C357.686 173.915 355.112 182.757 351 193 C350.443 194.745 349.897 196.494 349.375 198.25 C348.016 201.955 346.551 204.051 344 207 C343.753 207.505 343.753 207.505 342.5 210.062 C340.976 213.046 339.382 214.692 337 217 C336.763 217.402 336.763 217.402 335.562 219.438 C325.402 236.1 299.441 247.191 281 250 C277.691 250.094 274.404 250.135 271.096 250.127 C270.593 250.128 270.593 250.128 268.05 250.132 C264.678 250.136 261.305 250.133 257.933 250.129 C255.517 250.131 253.1 250.133 250.684 250.135 C244.116 250.139 237.547 250.137 230.979 250.134 C224.104 250.132 217.229 250.134 210.354 250.136 C198.802 250.138 187.25 250.135 175.697 250.13 C162.352 250.125 149.008 250.127 135.663 250.132 C124.203 250.137 112.743 250.137 101.283 250.135 C94.44 250.133 87.597 250.133 80.754 250.136 C74.314 250.139 67.874 250.137 61.434 250.131 C59.074 250.13 56.715 250.13 54.356 250.133 C51.126 250.135 47.896 250.132 44.666 250.127 C43.741 250.129 42.815 250.131 41.861 250.134 C32.189 250.105 23.389 249.539 14.25 246.125 C12.853 245.612 11.455 245.099 10.016 244.57 C4.293 242.332 -1.273 239.974 -6.688 237.062 C-7.599 236.579 -8.51 236.096 -9.449 235.598 C-12.048 233.97 -13.922 232.243 -16 230 C-18.437 227.5 -20.776 225.17 -23.562 223.062 C-26.426 220.64 -28.035 218.193 -30 215 C-30.402 214.371 -30.402 214.371 -32.438 211.188 C-33.283 209.806 -34.129 208.424 -35 207 C-35.846 205.659 -36.691 204.319 -37.562 202.938 C-40.425 197.77 -41.712 192.259 -43.105 186.551 C-44 183 -44 183 -45.051 179.98 C-46.851 174.328 -47.126 168.706 -47.134 162.807 C-47.138 161.39 -47.142 159.972 -47.147 158.512 C-47.146 156.973 -47.146 155.433 -47.145 153.847 C-47.149 152.214 -47.152 150.581 -47.155 148.898 C-47.164 144.431 -47.167 139.965 -47.167 135.498 C-47.168 132.707 -47.17 129.916 -47.173 127.125 C-47.182 117.388 -47.186 107.651 -47.185 97.914 C-47.185 88.836 -47.195 79.759 -47.211 70.681 C-47.224 62.884 -47.229 55.086 -47.229 47.289 C-47.229 42.633 -47.231 37.978 -47.242 33.322 C-47.253 28.136 -47.249 22.951 -47.243 17.765 C-47.249 16.219 -47.254 14.674 -47.26 13.081 C-47.256 11.672 -47.252 10.264 -47.247 8.812 C-47.248 7.586 -47.248 6.36 -47.249 5.096 C-47 2 -47 2 -45 -2 C-38.176 -5.509 -31.38 -5.606 -23.875 -5.812 C-23.298 -5.838 -23.298 -5.838 -20.379 -5.967 C-12.125 -6.248 -6.338 -5.795 0 0 Z " fill="#FFFFFF" transform="translate(705,1222)"/>
<path d="M0 0 C1.298 -0.014 2.596 -0.028 3.934 -0.043 C7.344 0.174 9.583 0.552 12.562 2.188 C13.5 4.688 13.5 4.688 13.562 7.188 C12.903 7.848 12.243 8.507 11.562 9.188 C9.224 8.889 6.892 8.546 4.562 8.188 C-1.482 7.54 -5.207 7.43 -10.5 10.688 C-16.164 17.436 -15.871 23.918 -14.438 32.188 C-11.438 35.188 -11.438 35.188 -8.875 36.688 C-6.438 38.188 -6.438 38.188 -4.438 41.188 C-0.5 41.688 -0.5 41.688 3.562 41.188 C5.25 38.75 5.25 38.75 6.562 36.188 C9.062 35.25 9.062 35.25 11.562 35.188 C12.553 35.848 13.543 36.507 14.562 37.188 C14.562 40.775 13.838 41.934 11.188 44.375 C5.682 48.177 1.466 49.852 -5.375 48.688 C-12.422 45.236 -19.882 39.855 -22.438 32.188 C-22.56 29.606 -22.613 27.022 -22.625 24.438 C-22.639 23.061 -22.653 21.684 -22.668 20.266 C-22.338 14.431 -21.838 10.499 -17.5 6.438 C-16.489 5.695 -15.479 4.953 -14.438 4.188 C-13.447 3.197 -12.457 2.207 -11.438 1.188 C-7.428 0.185 -4.12 0.02 0 0 Z " fill="#FFFFFF" transform="translate(401.4375,1623.8125)"/>
<path d="M0 0 C0.958 0.001 1.917 0.003 2.904 0.004 C10.015 0.094 10.015 0.094 13.438 2.375 C13.438 3.695 13.438 5.015 13.438 6.375 C10.867 7.66 9.056 7.438 6.188 7.375 C2.144 7.332 -1.591 7.516 -5.562 8.375 C-6.921 14.302 -5.986 17.848 -3.562 23.375 C-2.242 23.045 -0.923 22.715 0.438 22.375 C4.562 22.125 4.562 22.125 8.438 22.375 C9.097 23.365 9.758 24.355 10.438 25.375 C8.207 27.606 2.531 26.162 -0.461 26.02 C-3.562 26.375 -3.562 26.375 -6.562 30.375 C-7.083 35.06 -5.987 38.922 -4.562 43.375 C-4.075 43.327 -4.075 43.327 -1.605 43.086 C-0.333 42.975 0.939 42.864 2.25 42.75 C3.515 42.634 4.779 42.518 6.082 42.398 C9.438 42.375 9.438 42.375 12.438 44.375 C11.778 45.695 11.117 47.015 10.438 48.375 C6.988 48.562 3.918 48.517 0.5 48.25 C-0.42 48.201 -1.339 48.152 -2.287 48.102 C-9.132 47.662 -9.132 47.662 -12.562 45.375 C-14.841 38.54 -14.214 30.413 -14.463 23.226 C-14.553 20.652 -14.658 18.078 -14.766 15.504 C-14.802 14.1 -14.838 12.696 -14.875 11.25 C-14.912 10.01 -14.95 8.77 -14.988 7.492 C-14.562 4.375 -14.562 4.375 -13.203 1.969 C-9.033 -0.548 -4.718 -0.121 0 0 Z " fill="#FFFFFF" transform="translate(560.5625,1623.625)"/>
<path d="M0 0 C1.377 -0.026 2.753 -0.052 4.172 -0.078 C9.713 0.368 13.64 1.47 17.43 5.66 C17.989 6.535 18.549 7.411 19.125 8.312 C19.7 9.19 20.275 10.068 20.867 10.973 C23.351 15.063 23.444 17.728 23.5 22.562 C23.526 23.879 23.552 25.195 23.578 26.551 C23.24 30.368 22.62 32.276 20.25 35.25 C19.59 35.25 18.93 35.25 18.25 35.25 C18.085 36.137 17.92 37.024 17.75 37.938 C15.641 42.595 12.682 43.869 8.25 46.25 C7.446 46.683 6.641 47.116 5.812 47.562 C0.157 49.08 -4.55 48.85 -9.75 46.25 C-9.75 45.59 -9.75 44.93 -9.75 44.25 C-10.276 44.137 -10.276 44.137 -12.938 43.562 C-18.251 41.733 -20.687 38.844 -23.75 34.25 C-23.946 30.903 -24.028 27.658 -24 24.312 C-24.008 23.406 -24.015 22.499 -24.023 21.564 C-24.01 17.053 -23.798 14.347 -21.75 10.25 C-20.43 9.92 -19.11 9.59 -17.75 9.25 C-17.595 8.858 -17.595 8.858 -16.812 6.875 C-14.058 0.069 -6.376 0.071 0 0 Z M-14.75 13.25 C-15.74 14.24 -16.73 15.23 -17.75 16.25 C-18.148 19.211 -18.148 19.211 -18.125 22.625 C-18.133 23.746 -18.14 24.868 -18.148 26.023 C-17.282 33.039 -12.653 36.519 -7.316 40.629 C-3.851 42.818 -1.741 43.189 2.25 42.25 C4.688 40.688 4.688 40.688 7.25 38.25 C8.644 37.061 10.04 35.874 11.438 34.688 C15.7 31.028 17.178 29.194 17.625 23.312 C17.563 19.753 17.493 18.59 15.375 15.625 C13.25 14.25 13.25 14.25 11.25 14.25 C11.003 13.466 10.755 12.682 10.5 11.875 C9.25 9.25 9.25 9.25 5.25 7.25 C2.41 6.949 2.41 6.949 -0.688 6.938 C-1.707 6.921 -2.727 6.904 -3.777 6.887 C-8.743 7.494 -11.272 9.772 -14.75 13.25 Z " fill="#FFFFFF" transform="translate(647.75,1623.75)"/>
<path d="M0 0 C1.014 -0.004 2.029 -0.008 3.074 -0.012 C4.133 -0 5.191 0.011 6.281 0.023 C7.34 0.012 8.398 0 9.488 -0.012 C9.996 -0.01 9.996 -0.01 12.562 0 C13.027 0.002 13.027 0.002 15.377 0.01 C17.781 0.398 17.781 0.398 20.781 3.398 C20.121 4.718 19.461 6.038 18.781 7.398 C15.31 7.861 12.135 8.096 8.656 8.148 C7.711 8.178 6.766 8.208 5.793 8.238 C3.456 8.309 1.119 8.356 -1.219 8.398 C-1.453 14.062 -1.453 14.062 0.656 17.086 C3.658 19.308 5.51 20.05 9.031 21.023 C9.815 21.25 9.815 21.25 13.781 22.398 C14.111 23.388 14.441 24.378 14.781 25.398 C11.311 27.134 7.346 27.255 3.531 27.801 C0.781 28.398 0.781 28.398 -1.219 30.398 C-1.094 34.336 -1.094 34.336 -0.219 38.398 C4.111 41.646 4.774 41.719 9.844 41.461 C15.468 41.19 15.468 41.19 18.781 43.398 C17.781 47.398 17.781 47.398 15.781 48.398 C13.367 48.523 10.949 48.574 8.531 48.586 C7.227 48.6 5.922 48.614 4.578 48.629 C-3.831 48.118 -3.831 48.118 -6.863 44.361 C-8.695 40.358 -8.608 37.099 -8.617 32.703 C-8.62 31.874 -8.623 31.045 -8.626 30.19 C-8.628 28.444 -8.622 26.697 -8.61 24.951 C-8.594 22.275 -8.61 19.601 -8.629 16.926 C-8.627 15.227 -8.623 13.527 -8.617 11.828 C-8.614 10.284 -8.61 8.739 -8.607 7.148 C-7.992 1.206 -5.512 0.02 0 0 Z " fill="#FFFFFF" transform="translate(1084.21875,1623.6015625)"/>
<path d="M0 0 C2.23 2.371 2.23 2.371 4 5 C5.32 5.99 6.64 6.98 8 8 C9.242 13.28 9.196 18.654 9.25 24.062 C9.276 25.6 9.302 27.138 9.328 28.723 C8.991 33.122 8.53 35.417 6 39 C-1.389 44.208 -9.014 47.613 -18 46 C-24.815 43.049 -30.51 40.336 -33 33 C-33.387 29.281 -33.374 25.61 -33.312 21.875 C-33.316 20.886 -33.319 19.898 -33.322 18.879 C-33.286 14.036 -33.224 11.448 -31 7 C-29.68 6.67 -28.36 6.34 -27 6 C-26.773 5.196 -26.546 4.391 -26.312 3.562 C-25 1 -25 1 -21.375 -0.375 C-14.423 -1.543 -6.875 -1.495 0 0 Z M-22.812 9.312 C-26.733 14.129 -28.789 17.656 -29 24 C-27.406 31.37 -25.274 34.008 -19 38 C-18.34 39.32 -17.68 40.64 -17 42 C-10.593 42.811 -10.593 42.811 -7 42 C-5.188 39.188 -5.188 39.188 -4 36 C-3.154 35.505 -2.309 35.01 -1.438 34.5 C1.886 32.455 2.02 30.727 3 27 C3.606 21.189 3.731 15.844 1.562 10.375 C-5.408 3.914 -15.434 3.246 -22.812 9.312 Z " fill="#FFFFFF" transform="translate(1352,1625)"/>
<path d="M0 0 C0.931 0.058 1.863 0.116 2.822 0.176 C3.782 0.257 4.742 0.338 5.73 0.422 C6.22 0.455 6.22 0.455 8.697 0.621 C11.106 0.786 13.512 0.976 15.918 1.172 C16.248 2.492 16.578 3.812 16.918 5.172 C13.409 7.511 12.044 7.361 7.918 7.234 C4.488 7.138 2.188 7.082 -1.082 8.172 C-2.445 13.413 -1.839 17.107 -0.082 22.172 C0.619 22.058 0.619 22.058 4.168 21.484 C8.918 21.172 8.918 21.172 12.918 24.172 C12.918 24.832 12.918 25.492 12.918 26.172 C9.798 27.732 6.722 27.084 3.328 26.914 C0.918 27.172 0.918 27.172 -2.082 30.172 C-1.817 34.348 -1.097 38.114 -0.082 42.172 C2.228 42.337 2.228 42.337 13.918 43.172 C13.918 44.492 13.918 45.812 13.918 47.172 C11.189 47.253 8.46 47.311 5.73 47.359 C4.971 47.377 4.971 47.377 1.125 47.465 C-3.057 47.174 -4.912 46.828 -8.082 44.172 C-11.191 37.953 -10.492 31.573 -10.508 24.709 C-10.519 22.18 -10.569 19.653 -10.619 17.125 C-10.626 15.532 -10.633 13.938 -10.641 12.297 C-10.654 10.835 -10.668 9.373 -10.681 7.867 C-10.082 4.172 -10.082 4.172 -7.865 1.675 C-4.841 0.042 -3.386 -0.249 0 0 Z " fill="#FFFFFF" transform="translate(1502.08203125,1623.828125)"/>
<path d="M0 0 C1.127 0.079 2.253 0.157 3.414 0.238 C6.375 0.688 6.375 0.688 9.375 2.688 C9.062 5.312 9.062 5.312 8.375 7.688 C7.857 7.682 7.857 7.682 5.234 7.652 C3.878 7.643 2.522 7.634 1.125 7.625 C-0.221 7.613 -1.567 7.602 -2.953 7.59 C-6.625 7.688 -6.625 7.688 -10.625 8.688 C-10.625 13.688 -10.625 13.688 -8.754 15.348 C-7.907 15.81 -7.06 16.273 -6.188 16.75 C-5.276 17.255 -4.365 17.761 -3.426 18.281 C-0.936 19.531 1.56 20.666 4.125 21.75 C9.268 24.095 13.481 26.062 15.375 31.625 C15.375 35.192 14.822 37.421 13.375 40.688 C7.545 45.549 1.071 49.014 -6.625 47.688 C-9.75 46.438 -9.75 46.438 -12.625 44.688 C-13.718 44.027 -14.811 43.368 -15.938 42.688 C-18.625 40.688 -18.625 40.688 -19.625 37.688 C-19.295 37.027 -18.965 36.368 -18.625 35.688 C-12.633 36.101 -9.545 37.408 -4.625 40.688 C-0.936 40.777 0.288 39.757 3.188 37.438 C5.375 34.688 5.375 34.688 5.375 29.688 C3.787 29.254 2.199 28.821 0.562 28.375 C-3.414 27.291 -4.582 26.731 -7.625 23.688 C-7.625 23.027 -7.625 22.368 -7.625 21.688 C-9.048 21.44 -10.471 21.193 -11.938 20.938 C-16.625 19.688 -16.625 19.688 -19.625 15.688 C-20.746 12.565 -20.869 11.262 -19.562 8.188 C-13.828 0.788 -9.008 -0.694 0 0 Z " fill="#FFFFFF" transform="translate(1909.625,1624.3125)"/>
<path d="M0 0 C2.562 2.125 2.562 2.125 5 5 C5.541 5.616 6.083 6.232 6.641 6.867 C11.474 13.033 12.535 19.303 11 27 C9.023 29.727 9.023 29.727 7 32 C6.67 32.866 6.34 33.733 6 34.625 C3.829 39.782 -2.156 41.863 -7 44 C-12.377 45.14 -15.927 45.156 -21 43 C-21 42.34 -21 41.68 -21 41 C-22.093 40.773 -23.186 40.546 -24.312 40.312 C-28.618 38.78 -28.994 37.922 -31 34 C-31.844 33.273 -32.689 32.546 -33.559 31.797 C-36.708 28.189 -36.585 26.284 -36.438 21.562 C-36.416 20.285 -36.394 19.008 -36.371 17.691 C-35.694 10.954 -34.005 7.528 -29 3 C-28.361 2.278 -27.721 1.556 -27.062 0.812 C-20.044 -5.355 -7.644 -4.524 0 0 Z M-25 9 C-25.928 9.681 -26.856 10.361 -27.812 11.062 C-31.218 15.636 -30.697 20.482 -30 26 C-28.598 30.446 -27.254 31.979 -23 34 C-22.34 34 -21.68 34 -21 34 C-20.876 34.804 -20.753 35.609 -20.625 36.438 C-18.596 39.636 -17.767 39.584 -14.125 40.125 C-9.402 40.369 -9.402 40.369 -6.688 37.875 C-6.131 36.926 -5.574 35.977 -5 35 C-4.196 34.216 -3.391 33.432 -2.562 32.625 C1.928 28.025 4.735 24.806 5.688 18.312 C5 14 5 14 2.25 11.75 C1.177 11.172 0.105 10.595 -1 10 C-1.66 9.113 -2.32 8.226 -3 7.312 C-5.634 4.267 -7.019 4.225 -11 4 C-12.506 3.876 -14.011 3.753 -15.562 3.625 C-20.82 4.069 -21.784 4.98 -25 9 Z " fill="#FFFFFF" transform="translate(2086,1627)"/>
<path d="M0 0 C5.186 1.61 6.083 4.443 8.625 9.125 C9.532 10.383 10.44 11.641 11.375 12.938 C13.625 16.125 13.625 16.125 14.625 19.125 C15.45 19.764 16.275 20.404 17.125 21.062 C19.625 23.125 19.625 23.125 20.625 27.125 C22.605 26.795 24.585 26.465 26.625 26.125 C26.662 24.488 26.7 22.851 26.738 21.164 C26.804 19.026 26.87 16.888 26.938 14.75 C26.96 13.67 26.983 12.59 27.006 11.477 C27.041 10.445 27.077 9.414 27.113 8.352 C27.139 7.398 27.166 6.445 27.193 5.463 C27.625 3.125 27.625 3.125 30.625 1.125 C35.617 6.117 34.106 12.731 34.071 19.512 C34.063 22.05 34.091 24.586 34.123 27.123 C34.122 28.721 34.122 30.319 34.121 31.965 C34.122 32.699 34.122 32.699 34.127 36.414 C33.575 40.492 32.849 41.685 29.625 44.125 C23.849 41.558 21.513 38.93 18.688 33.188 C16.92 29.706 15.083 27.11 12.625 24.125 C12.625 23.465 12.625 22.805 12.625 22.125 C11.656 21.878 10.686 21.63 9.688 21.375 C8.677 20.963 7.666 20.55 6.625 20.125 C6.295 18.805 5.965 17.485 5.625 16.125 C0.75 17 0.75 17 -0.375 18.125 C-0.401 22.11 -0.346 26.084 -0.248 30.068 C-0.19 34.548 -0.334 37.044 -2.375 41.125 C-3.695 40.795 -5.015 40.465 -6.375 40.125 C-6.449 34.75 -6.504 29.375 -6.54 24 C-6.555 22.17 -6.575 20.341 -6.601 18.511 C-6.638 15.885 -6.655 13.259 -6.668 10.633 C-6.684 9.051 -6.699 7.47 -6.716 5.84 C-6.603 4.614 -6.491 3.388 -6.375 2.125 C-3.375 0.125 -3.375 0.125 0 0 Z " fill="#FFFFFF" transform="translate(213.375,1624.875)"/>
<path d="M0 0 C-0.33 1.98 -0.66 3.96 -1 6 C-1.75 5.772 -2.5 5.544 -3.273 5.309 C-10.339 3.324 -15.781 2.418 -23 4 C-25.875 6.375 -25.875 6.375 -28 9 C-29.32 9.99 -30.64 10.98 -32 12 C-33.187 17.951 -32.557 24.021 -29 29 C-26 31.688 -26 31.688 -23 34 C-22.01 34.99 -21.02 35.98 -20 37 C-15.59 38.248 -13.758 38.415 -9.688 36.188 C-7 34 -7 34 -5 32 C-3.35 32 -1.7 32 0 32 C0.165 32.825 0.165 32.825 1 37 C-3.75 40 -3.75 40 -6 40 C-6.66 41.32 -7.32 42.64 -8 44 C-15.63 45.346 -22.752 44.786 -29 40 C-29.454 39.68 -29.454 39.68 -31.75 38.062 C-34.121 35.889 -35.452 33.801 -37 31 C-37.66 30.34 -38.32 29.68 -39 29 C-40.651 20.743 -40.712 13.68 -37 6 C-34.562 3.75 -34.562 3.75 -32 2 C-31.402 1.299 -30.804 0.598 -30.188 -0.125 C-22.788 -6.467 -7.664 -5.437 0 0 Z " fill="#FFFFFF" transform="translate(844,1628)"/>
<path d="M0 0 C0.842 -0.019 1.684 -0.039 2.551 -0.059 C6.888 -0.024 9.139 0.344 12.594 3.039 C14.5 5.625 14.5 5.625 14.5 7.625 C15.325 7.79 15.325 7.79 19.5 8.625 C20.549 13.829 20.7 18.885 20.75 24.188 C20.771 25.025 20.791 25.862 20.812 26.725 C20.843 31.555 20.585 34.821 17.5 38.625 C13.662 41.61 10.098 43.162 5.5 44.625 C4.84 45.285 4.18 45.945 3.5 46.625 C-2.823 46.964 -2.823 46.964 -5.5 45.625 C-5.17 44.635 -4.84 43.645 -4.5 42.625 C-1.934 42.43 0.632 42.237 3.199 42.062 C3.958 41.918 4.718 41.774 5.5 41.625 C6.75 39.25 6.75 39.25 7.5 36.625 C8.49 36.254 9.48 35.882 10.5 35.5 C14.073 33.267 14.151 32.543 15 28.562 C15.964 21.293 14.798 15.22 11.5 8.625 C4.246 6.811 -3.657 5.966 -10.25 9.812 C-15.265 16.081 -15.861 22.537 -14.938 30.438 C-13.235 35.398 -12.167 35.738 -7.5 37.625 C-7.17 38.945 -6.84 40.265 -6.5 41.625 C-10.5 42.625 -10.5 42.625 -12.938 41.562 C-17.454 38.148 -20.183 35.265 -21.277 29.602 C-21.33 28.166 -21.383 26.73 -21.438 25.25 C-21.508 23.819 -21.579 22.388 -21.652 20.914 C-21.496 16.509 -20.85 12.817 -19.5 8.625 C-17.188 6.938 -17.188 6.938 -14.5 5.625 C-13.816 4.786 -13.131 3.947 -12.426 3.082 C-8.448 -0.258 -4.96 -0.114 0 0 Z " fill="#FFFFFF" transform="translate(915.5,1624.375)"/>
<path d="M0 0 C2.603 3.904 2.327 6.908 2.461 11.504 C2.639 12.328 2.817 13.151 3 14 C4.32 14.66 5.64 15.32 7 16 C8.241 18.846 8.932 21.727 9.68 24.734 C9.93 25.709 10.18 26.683 10.438 27.688 C10.663 28.619 10.889 29.551 11.121 30.512 C12 33 12 33 15 36 C14.688 39.188 14.688 39.188 14 42 C8.968 41.543 5.975 38.945 2 36 C-3.191 34.27 -8.593 34.383 -14 35 C-17.363 37.44 -18.719 39.578 -21 43 C-25 41 -25 41 -25.938 38.812 C-26.051 33.706 -23.473 29.802 -20.938 25.5 C-19 22 -19 22 -18 18.188 C-17 15 -17 15 -13 13 C-12.094 10.723 -12.094 10.723 -11.5 8.062 C-10.06 1.628 -6.631 -0.865 0 0 Z M-11 13 C-13.142 15.142 -12.244 18.596 -12.328 21.457 C-12 24 -12 24 -9 28 C-4.817 27.893 -3.489 26.617 0 24 C0 20.5 0 20.5 -1 17 C-4.882 14.088 -6.37 13.412 -11 13 Z " fill="#FFFFFF" transform="translate(1261,1625)"/>
<path d="M0 0 C1.32 0.33 2.64 0.66 4 1 C4.289 1.784 4.578 2.568 4.875 3.375 C6.443 7.033 8.368 7.576 12 9 C12.846 9.371 13.691 9.743 14.562 10.125 C15.367 10.084 16.171 10.043 17 10 C18.699 7.69 20.364 5.355 22 3 C25.188 1.5 25.188 1.5 28 1 C28.66 1.33 29.32 1.66 30 2 C28 6 28 6 26 7 C25.691 7.784 25.381 8.568 25.062 9.375 C24 12 24 12 21 15 C20.19 19.777 19.857 24.514 22.875 28.438 C23.576 28.953 24.277 29.469 25 30 C25.66 31.32 26.32 32.64 27 34 C28.32 34.99 29.64 35.98 31 37 C30.75 40.688 30.75 40.688 30 44 C19.793 38.897 19.793 38.897 17 33 C17 32.34 17 31.68 17 31 C11.851 32.918 8.674 34.928 5 39 C3.667 40.333 2.333 41.667 1 43 C-0.32 42.01 -1.64 41.02 -3 40 C-3 35.617 -0.955 33.472 2 30.438 C5.702 26.623 6.648 24.031 7.562 18.75 C6.818 13.784 4.576 12.161 0.848 8.992 C-1.336 6.637 -1.838 5.187 -2 2 C-1.34 1.34 -0.68 0.68 0 0 Z " fill="#FFFFFF" transform="translate(1572,1625)"/>
<path d="M0 0 C1.875 2.438 1.875 2.438 3 5 C4.32 5.99 5.64 6.98 7 8 C7 13.392 5.521 16.064 2 20 C1.484 20.908 0.969 21.815 0.438 22.75 C-1 25 -1 25 -4 26 C-7.069 25.915 -10.124 25.742 -13.188 25.547 C-16 26 -16 26 -17.801 28.215 C-19.448 32.04 -20.209 35.922 -21 40 C-23.438 39.625 -23.438 39.625 -26 39 C-28.462 34.076 -27.186 26.994 -27.185 21.578 C-27.187 19.01 -27.206 16.443 -27.225 13.875 C-27.227 12.266 -27.228 10.658 -27.23 9 C-27.235 7.515 -27.239 6.03 -27.243 4.5 C-27 1 -27 1 -25 -1 C-16.535 -2.312 -8.188 -2.649 0 0 Z M-20 8 C-20.398 10.375 -20.398 10.375 -20.375 13 C-20.383 13.866 -20.39 14.733 -20.398 15.625 C-20 18 -20 18 -17 21 C-12.591 21.408 -8.808 21.394 -5 19 C-2.903 14.806 -2.479 11.463 -4 7 C-9.229 3.514 -15.647 3.647 -20 8 Z " fill="#FFFFFF" transform="translate(1679,1626)"/>
<path d="M0 0 C1.477 2.617 1.477 2.617 2.625 5.875 C4.098 9.977 4.854 11.854 8 15 C8.59 17.707 8.59 17.707 8.938 20.812 C9.663 25.87 10.813 28.917 14 33 C15.375 35.688 15.375 35.688 16 38 C15.34 38.99 14.68 39.98 14 41 C12.68 40.67 11.36 40.34 10 40 C9.753 39.196 9.505 38.391 9.25 37.562 C8 35 8 35 4.562 33.625 C-2.992 32.59 -10.869 33.117 -18 36 C-18.66 37.32 -19.32 38.64 -20 40 C-21.32 40 -22.64 40 -24 40 C-24 35 -24 35 -21 32 C-20.215 29.339 -19.54 26.645 -18.938 23.938 C-17.208 16.208 -17.208 16.208 -15 14 C-14.01 14 -13.02 14 -12 14 C-11.837 16.539 -11.674 19.078 -11.512 21.617 C-11 24 -11 24 -8 26 C-3.875 26.25 -3.875 26.25 0 26 C1.737 22.526 1.107 18.805 1 15 C-0.74 13.26 -3.148 13.951 -5.5 14 C-10.889 14.111 -10.889 14.111 -12 13 C-11.662 7.937 -11.189 4.047 -8 0 C-4.625 -1.125 -3.306 -1.241 0 0 Z " fill="#FFFFFF" transform="translate(1992,1626)"/>
<path d="M0 0 C0.495 0.165 0.495 0.165 3 1 C5.059 8.402 5.177 15.187 4.75 22.812 C4.71 23.822 4.67 24.832 4.629 25.873 C4.194 34.782 4.194 34.782 2 39 C-0.61 40.754 -3.278 42.426 -6 44 C-6.66 44.66 -7.32 45.32 -8 46 C-13.26 47.238 -16.975 46.991 -22 45 C-24.125 43.188 -24.125 43.188 -26 41 C-26.852 40.282 -27.704 39.564 -28.582 38.825 C-31.678 35.208 -31.607 33.325 -31.559 28.617 C-31.552 27.203 -31.544 25.789 -31.537 24.332 C-31.504 22.861 -31.471 21.39 -31.438 19.875 C-31.432 18.396 -31.426 16.918 -31.42 15.395 C-31.295 4.442 -31.295 4.442 -29 1 C-28.01 1.33 -27.02 1.66 -26 2 C-25.951 3.64 -25.902 5.279 -25.852 6.969 C-25.776 9.146 -25.701 11.323 -25.625 13.5 C-25.594 14.578 -25.563 15.655 -25.531 16.766 C-25.251 24.429 -24.479 31.042 -21 38 C-12.176 38.905 -12.176 38.905 -8.562 36.125 C-8.047 35.424 -7.531 34.723 -7 34 C-6.01 33.34 -5.02 32.68 -4 32 C-2.257 26.109 -2.989 19.745 -3.127 13.66 C-3.252 3.252 -3.252 3.252 0 0 Z " fill="#FFFFFF" transform="translate(327,1626)"/>
<path d="M0 0 C1.32 0.66 2.64 1.32 4 2 C4.406 4.746 4.406 4.746 4.285 8.223 C4.259 9.484 4.232 10.745 4.205 12.045 C4.158 13.371 4.111 14.697 4.062 16.062 C3.479 33.6 3.479 33.6 7 40 C10.793 41.316 10.793 41.316 15.188 41.562 C16.645 41.667 18.103 41.771 19.605 41.879 C20.726 41.919 21.846 41.959 23 42 C22.67 42.99 22.34 43.98 22 45 C18.581 45.162 15.171 45.281 11.75 45.375 C10.782 45.425 9.814 45.476 8.816 45.527 C7.882 45.547 6.947 45.566 5.984 45.586 C5.126 45.617 4.267 45.649 3.382 45.681 C-0.418 44.594 -1.274 42.447 -3 39 C-3.578 35.261 -3.578 35.261 -3.68 31.117 C-3.721 29.621 -3.762 28.124 -3.805 26.582 C-3.816 25.805 -3.816 25.805 -3.875 21.875 C-3.921 20.314 -3.968 18.753 -4.016 17.145 C-4.276 5.551 -4.276 5.551 -2 1 C-1.34 0.67 -0.68 0.34 0 0 Z " fill="#FFFFFF" transform="translate(472,1626)"/>
<path d="M0 0 C4.741 0.474 5.854 1.675 8.75 5.375 C9.766 7.367 10.767 9.367 11.75 11.375 C13.064 12.728 14.394 14.064 15.75 15.375 C16.08 16.365 16.41 17.355 16.75 18.375 C17.74 19.014 18.73 19.654 19.75 20.312 C22.75 22.375 22.75 22.375 23.75 26.375 C27.75 25.375 27.75 25.375 28.75 23.375 C28.781 19.117 28.682 14.867 28.59 10.609 C28.737 6.718 29.297 3.954 30.75 0.375 C31.575 0.54 31.575 0.54 35.75 1.375 C35.799 6.732 35.836 12.089 35.86 17.446 C35.87 19.268 35.884 21.091 35.901 22.913 C35.925 25.532 35.936 28.151 35.945 30.77 C35.951 31.558 35.951 31.558 35.977 35.546 C35.75 39.375 35.75 39.375 33.75 42.375 C29.438 42.625 29.438 42.625 24.75 41.375 C23.004 39.253 21.938 37.204 20.82 34.699 C19.75 32.375 19.75 32.375 16.75 28.375 C16.461 27.179 16.173 25.983 15.875 24.75 C14.75 21.375 14.75 21.375 12.312 20.25 C11.89 20.106 11.89 20.106 9.75 19.375 C7.938 16.75 7.938 16.75 6.75 14.375 C5.43 14.705 4.11 15.035 2.75 15.375 C1.89 22.47 1.768 29.228 2.105 36.371 C1.75 39.375 1.75 39.375 -2.25 42.375 C-5.403 39.222 -4.492 36.049 -4.48 31.684 C-4.48 30.823 -4.48 29.963 -4.479 29.076 C-4.476 27.256 -4.468 25.436 -4.456 23.616 C-4.438 20.82 -4.435 18.025 -4.436 15.229 C-4.395 0.507 -4.395 0.507 0 0 Z " fill="#FFFFFF" transform="translate(990.25,1625.625)"/>
<path d="M0 0 C1.32 0.66 2.64 1.32 4 2 C3.633 8.367 3.633 8.367 0.562 11.438 C-2 13 -2 13 -4 13 C-4.402 27.853 -4.402 27.853 -2 33 C0.5 34.188 0.5 34.188 3 35 C3.66 36.32 4.32 37.64 5 39 C4.01 40.32 3.02 41.64 2 43 C0.68 42.67 -0.64 42.34 -2 42 C-2.186 41.422 -2.186 41.422 -3.125 38.5 C-5 35 -5 35 -7.27 34.07 C-10.067 33.603 -12.215 33.436 -15 34 C-17.062 37.25 -17.062 37.25 -19 41 C-22.004 42.603 -24.638 43.22 -28 44 C-29 43 -29 43 -29 38 C-26.205 34.398 -23.221 31.221 -20 28 C-19.34 28 -18.68 28 -18 28 C-17.865 25.898 -17.768 23.793 -17.688 21.688 C-17.629 20.516 -17.571 19.344 -17.512 18.137 C-18 15 -18 15 -20.406 13.301 C-21.262 12.872 -22.118 12.442 -23 12 C-24.828 8.47 -26 5.989 -26 2 C-23.188 1.25 -23.188 1.25 -20 1 C-17.513 4.316 -15.769 7.294 -14 11 C-9.688 10.5 -9.688 10.5 -5 9 C-3.062 4.938 -3.062 4.938 -2 1 C-1.34 0.67 -0.68 0.34 0 0 Z " fill="#FFFFFF" transform="translate(1183,1625)"/>
<path d="M0 0 C4.156 0.244 6.529 0.659 9.938 3.125 C12.48 6.67 12.419 8.731 12 13 C11.031 13.206 10.061 13.412 9.062 13.625 C8.052 14.079 7.041 14.533 6 15 C4.47 20.718 5.057 26.581 5.258 32.441 C4.986 36.2 4.201 37.998 2 41 C-1 39 -1 39 -1.464 35.731 C-1.503 34.349 -1.542 32.967 -1.582 31.543 C-1.627 30.038 -1.671 28.533 -1.717 26.982 C-1.748 25.4 -1.78 23.818 -1.812 22.188 C-1.863 20.617 -1.914 19.046 -1.967 17.428 C-2.29 4.623 -2.29 4.623 0 0 Z " fill="#FFFFFF" transform="translate(1808,1626)"/>
<path d="M0 0 C3.625 0.438 3.625 0.438 6.062 2.5 C7.962 6.071 8.009 8.446 7.625 12.438 C5.889 14.174 3.42 14.094 1.062 14.5 C0.051 14.677 -0.961 14.853 -2.004 15.035 C-2.786 15.168 -3.569 15.301 -4.375 15.438 C-4.5 24.312 -4.5 24.312 -3.375 25.438 C0.562 25.688 0.562 25.688 4.625 25.438 C7.003 21.871 7.672 18.589 8.625 14.438 C9.945 14.438 11.265 14.438 12.625 14.438 C12.94 15.534 13.254 16.631 13.578 17.762 C14.006 19.202 14.434 20.641 14.875 22.125 C15.084 22.838 15.084 22.838 16.141 26.449 C17.549 30.233 19.121 32.362 21.625 35.438 C20.875 38.75 20.875 38.75 19.625 41.438 C15.625 39.438 15.625 39.438 14.695 36.898 C13.625 34.438 13.625 34.438 11.305 33.477 C3.49 32.323 -4.044 31.947 -11.375 35.438 C-12.063 37.096 -12.731 38.762 -13.375 40.438 C-16 41.25 -16 41.25 -18.375 41.438 C-19.979 35.639 -18.839 32.93 -15.707 27.918 C-13.792 24.352 -13.051 20.668 -12.246 16.723 C-11.375 14.438 -11.375 14.438 -7.375 12.438 C-6.617 10.125 -6.617 10.125 -6.25 7.438 C-5.288 0.686 -5.288 0.686 0 0 Z " fill="#FFFFFF" transform="translate(1742.375,1626.5625)"/>
<path d="M0 0 C1.32 0.33 2.64 0.66 4 1 C4.217 5.911 4.414 10.822 4.592 15.734 C4.687 18.225 4.797 20.716 4.908 23.207 C4.963 24.773 5.018 26.339 5.074 27.953 C5.103 28.676 5.103 28.676 5.249 32.333 C5 36 5 36 2 40 C-0.875 40.562 -0.875 40.562 -4 40 C-10.189 34.962 -13.467 27.467 -17.379 20.645 C-19 18 -19 18 -21 16 C-21 14.68 -21 13.36 -21 12 C-19.68 12.33 -18.36 12.66 -17 13 C-16.732 13.804 -16.464 14.609 -16.188 15.438 C-15 18 -15 18 -11.5 19.188 C-10.345 19.456 -9.19 19.724 -8 20 C-7.34 20.66 -6.68 21.32 -6 22 C-4.68 21.67 -3.36 21.34 -2 21 C-0.763 16.054 -0.643 11.823 -1.625 6.812 C-2 4 -2 4 0 0 Z " fill="#FFFFFF" transform="translate(1842,1628)"/>
</svg>
