<svg xmlns="http://www.w3.org/2000/svg" viewBox="0 0 1024 1024" role="img" aria-label="NUXS">
  <rect width="1024" height="1024" rx="224" fill="#6E3BFF"/>
  <g transform="translate(143.4,245.1) scale(0.5274)" fill="#FFFFFF">
    <path d="M0 0 C-0.33 0.99 -0.66 1.98 -1 3 C-1.495 3.165 -1.495 3.165 -4 4 C-4.186 4.907 -4.371 5.815 -4.562 6.75 C-6.537 11.214 -9.235 11.958 -13.59 13.824 C-16 15 -16 15 -19 18 C-21.658 19.351 -24.325 20.683 -27 22 C-29.006 23.324 -31.007 24.657 -33 26 C-33.505 26.248 -33.505 26.248 -36.062 27.5 C-39.083 29.042 -41.364 30.878 -44 33 C-46.315 34.364 -48.649 35.698 -51 37 C-54.921 39.212 -58.447 41.805 -62.031 44.527 C-64.619 46.463 -67.295 48.233 -70 50 C-70.759 50.521 -71.519 51.042 -72.301 51.578 C-72.705 51.854 -72.705 51.854 -74.75 53.25 C-75.508 53.771 -76.266 54.292 -77.047 54.828 C-79 56 -79 56 -81 56 C-81.33 56.99 -81.66 57.98 -82 59 C-83.85 60.211 -85.709 61.412 -87.609 62.543 C-93.705 66.258 -99.472 70.49 -105 75 C-112.132 80.434 -112.132 80.434 -115.875 82.875 C-119.597 85.406 -123.04 88.21 -126.535 91.043 C-128.596 92.68 -130.729 94.227 -132.875 95.75 C-136 98 -136 98 -138.062 100.062 C-140.473 102.473 -143.16 104.114 -146 106 C-148.01 107.487 -150.01 108.987 -152 110.5 C-155.036 112.808 -158.063 115.041 -161.242 117.148 C-164 119 -164 119 -166.125 121.125 C-168 123 -168 123 -172 125 C-173.668 126.665 -175.335 128.332 -177 130 C-179.302 131.729 -181.638 133.416 -184 135.062 C-188.106 137.934 -192.101 140.854 -196 144 C-197.658 145.014 -199.327 146.011 -201 147 C-203.345 148.587 -205.682 150.184 -208.012 151.793 C-210 153 -210 153 -212 153 C-212 153.66 -212 154.32 -212 155 C-214.244 156.254 -216.491 157.503 -218.762 158.707 C-221 160 -221 160 -223.062 162.062 C-225 164 -225 164 -229.188 166.062 C-233 168 -233 168 -234 171 C-231.493 170.902 -228.987 170.805 -226.48 170.707 C-224 171 -224 171 -221 174 C-225.562 182.319 -231.605 188.816 -238.719 195.008 C-240.41 196.485 -242.037 198.037 -243.625 199.625 C-245.688 201.688 -247.797 203.592 -250 205.5 C-254.091 209.053 -257.908 212.643 -261.312 216.875 C-264.034 220.04 -266.914 222.637 -270.082 225.336 C-271.677 226.72 -273.194 228.194 -274.688 229.688 C-277 232 -277 232 -279.562 234 C-282.145 236.119 -283.949 238.372 -286 241 C-289.452 244.633 -293.154 247.795 -297 251 C-297.763 251.763 -298.526 252.526 -299.312 253.312 C-301.644 255.644 -304.028 257.822 -306.5 260 C-310.733 263.743 -314.763 267.462 -318.312 271.875 C-320.454 274.365 -322.458 276.33 -324.938 278.438 C-328.71 281.65 -331.825 285.19 -335 289 C-338.458 292.63 -342.152 295.793 -346 299 C-348.689 301.558 -351.123 304.148 -353.5 307 C-355.869 309.842 -358.351 312.421 -361 315 C-361.99 315.99 -362.98 316.98 -364 318 C-364.66 318 -365.32 318 -366 318 C-366.113 318.371 -366.113 318.371 -366.688 320.25 C-368.275 323.577 -370.06 324.812 -373 327 C-375.688 329.554 -378.125 332.15 -380.5 335 C-383.528 338.634 -386.609 341.938 -390.375 344.812 C-394.872 348.56 -398.503 353.107 -402.125 357.688 C-404.256 360.316 -406.607 362.607 -409 365 C-410.341 366.493 -411.673 367.994 -413 369.5 C-415.899 372.787 -418.901 375.901 -422 379 C-423.506 380.661 -425.006 382.328 -426.5 384 C-429.576 387.441 -432.737 390.737 -436 394 C-438.7 396.971 -441.352 399.983 -444 403 C-444.307 403.349 -444.307 403.349 -445.859 405.113 C-447.578 407.071 -449.29 409.035 -451 411 C-452.011 412.155 -453.021 413.31 -454.062 414.5 C-458.966 420.342 -463.311 426.418 -467.5 432.777 C-470.78 437.638 -474.412 442.24 -478 446.875 C-480.854 450.663 -483.234 454.663 -485.625 458.754 C-487 461 -487 461 -489.125 463.625 C-491.659 466.835 -493.243 470.316 -495 474 C-495.495 474.928 -495.99 475.856 -496.5 476.812 C-498.238 480.506 -499.592 484.27 -500.938 488.121 C-502 491 -502 491 -503.527 494.32 C-505.149 498.372 -505.881 502.131 -506.562 506.438 C-507.249 510.713 -507.964 514.862 -509.066 519.051 C-512.325 532.834 -509.04 546.516 -506 560 C-505.762 561.283 -505.523 562.565 -505.277 563.887 C-503.291 574.509 -500.012 584.628 -493 593 C-492.237 594.237 -491.474 595.475 -490.688 596.75 C-485.368 605.354 -478.696 612.604 -471.805 619.977 C-469.667 622.281 -467.587 624.598 -465.562 627 C-462.322 630.793 -459.014 634.184 -455.125 637.312 C-452 640 -452 640 -449.082 643.383 C-443.875 649.399 -438.196 654.949 -432.562 660.562 C-432.016 661.111 -432.016 661.111 -429.248 663.889 C-423.657 669.473 -418.007 674.867 -412 680 C-410.333 681.667 -408.667 683.333 -407 685 C-406.175 685.66 -405.35 686.32 -404.5 687 C-401.793 689.165 -399.418 691.519 -397 694 C-396.01 694.99 -395.02 695.98 -394 697 C-394 697.66 -394 698.32 -394 699 C-393.257 699.227 -392.515 699.454 -391.75 699.688 C-388.468 701.254 -387.205 703.155 -385 706 C-383.68 706.66 -382.36 707.32 -381 708 C-379.648 709.652 -378.316 711.32 -377 713 C-375.371 714.42 -373.701 715.793 -372 717.125 C-366.705 721.357 -361.748 725.864 -356.824 730.52 C-354.019 732.984 -351.108 734.939 -348 737 C-346.24 738.528 -344.511 740.092 -342.812 741.688 C-339.153 745.07 -335.447 748.316 -331.562 751.438 C-327.522 754.694 -323.677 758.093 -319.875 761.625 C-313.941 767.122 -307.794 772.03 -301.188 776.688 C-298.464 778.664 -296.328 780.599 -294 783 C-288.539 787.872 -282.798 791.975 -276.697 796.031 C-273.116 798.444 -269.971 800.87 -267 804 C-265.341 805.012 -263.674 806.013 -262 807 C-261.01 807.99 -260.02 808.98 -259 810 C-252.494 815.439 -245.715 820.552 -238.98 825.703 C-235.152 828.653 -231.405 831.65 -227.75 834.812 C-221.736 839.925 -215.592 844.655 -209 849 C-207.325 850.323 -205.659 851.657 -204 853 C-197.858 857.69 -191.577 862.168 -185.27 866.633 C-182.441 868.681 -179.723 870.816 -177 873 C-176.588 873.247 -176.588 873.247 -174.5 874.5 C-171.784 876.13 -169.468 878.015 -167 880 C-165.155 881.387 -163.301 882.762 -161.438 884.125 C-160.973 884.467 -160.973 884.467 -158.621 886.195 C-156 888 -156 888 -152 890 C-151.01 890.99 -150.02 891.98 -149 893 C-145.423 895.53 -141.707 897.773 -137.938 900 C-134.383 902.114 -131.181 904.349 -128 907 C-123.937 909.863 -119.714 912.263 -115.359 914.652 C-109.901 917.77 -104.794 921.362 -99.812 925.188 C-96.576 927.575 -93.585 929.247 -90 931 C-88.313 932.307 -86.646 933.642 -85 935 C-83.007 936.344 -81.006 937.675 -79 939 C-77.373 940.143 -75.748 941.289 -74.125 942.438 C-69.841 945.45 -65.445 948.231 -61 951 C-59.804 951.866 -58.608 952.732 -57.375 953.625 C-54 956 -54 956 -50.875 957.562 C-48 959 -48 959 -45.625 960.938 C-42.319 963.535 -38.778 965.17 -35 967 C-34.216 967.474 -33.432 967.949 -32.625 968.438 C-29.294 970.42 -25.834 972.088 -22.359 973.805 C-19.827 975.087 -17.421 976.52 -15 978 C-14.464 978.247 -14.464 978.247 -11.75 979.5 C-9 981 -9 981 -8 984 C-5.687 985.063 -5.687 985.063 -3 986 C-1.68 986.66 -0.36 987.32 1 988 C0.67 988.99 0.34 989.98 0 991 C-9.522 991.381 -9.522 991.381 -15 988 C-17.024 987.469 -19.069 987.014 -21.125 986.625 C-26.637 985.446 -31.266 983.647 -36.316 981.191 C-39.892 979.604 -43.527 978.698 -47.312 977.746 C-50.849 976.764 -54.155 975.378 -57.539 973.969 C-60.786 972.691 -64.093 971.742 -67.445 970.781 C-70.119 969.964 -72.702 968.999 -75.312 968 C-79.38 966.481 -83.38 965.409 -87.625 964.5 C-92.251 963.496 -96.205 962.115 -100.484 960.039 C-104.953 958.193 -109.663 957.172 -114.352 956.027 C-118.077 954.978 -121.454 953.537 -125 952 C-126.464 951.691 -127.929 951.381 -129.438 951.062 C-134 950 -134 950 -137.812 948.062 C-141.332 946.329 -143.992 945.423 -147.75 944.562 C-153.123 943.32 -157.935 941.464 -162.98 939.262 C-167.024 937.572 -171.157 936.248 -175.324 934.902 C-178 934 -178 934 -181.625 932.438 C-184.395 931.258 -186.992 930.385 -189.875 929.562 C-194.801 928.141 -199.314 926.083 -204 924 C-205.659 923.475 -207.326 922.975 -209 922.5 C-213.889 921.112 -218.354 919.065 -223 917 C-224.764 916.456 -226.535 915.935 -228.312 915.438 C-233 914 -233 914 -237 911 C-239.77 910.191 -239.77 910.191 -242.812 909.562 C-247.847 908.4 -251.541 906.642 -256 904 C-257.592 903.482 -259.198 903.006 -260.812 902.562 C-265.362 901.298 -269.263 899.436 -273.438 897.258 C-277.812 895.111 -282.399 893.585 -287 892 C-292.533 890.094 -297.867 888.149 -303.062 885.438 C-306.453 883.669 -309.692 882.405 -313.375 881.375 C-318 880 -318 880 -322 877 C-324.081 876.284 -326.19 875.644 -328.312 875.062 C-333.388 873.574 -337.453 871.728 -342 869 C-348.185 866.206 -354.517 863.804 -360.875 861.438 C-365.394 859.724 -368.991 857.702 -373 855 C-375.729 853.919 -378.487 852.961 -381.262 852.004 C-384.996 850.635 -388.457 848.801 -392 847 C-392.66 846.753 -392.66 846.753 -396 845.5 C-401.479 843.445 -406.557 840.745 -411.75 838.062 C-415.184 836.396 -418.591 834.927 -422.125 833.5 C-426.481 831.717 -430.119 829.674 -434 827 C-436.226 825.982 -438.454 824.966 -440.703 824 C-445.433 821.941 -449.981 819.593 -454.438 817 C-458 815 -458 815 -462.5 813.062 C-466.822 811.082 -470.156 808.765 -474 806 C-476.406 804.708 -478.848 803.515 -481.305 802.324 C-484.198 800.903 -487.039 799.407 -489.875 797.875 C-490.759 797.398 -491.644 796.921 -492.555 796.43 C-495 795 -495 795 -499 792 C-499.588 791.753 -499.588 791.753 -502.562 790.5 C-506 789 -506 789 -509 786 C-510.517 785.023 -512.062 784.088 -513.625 783.188 C-517.734 780.773 -521.709 778.231 -525.656 775.562 C-528.223 773.851 -530.826 772.206 -533.438 770.562 C-537.878 767.752 -542.181 764.792 -546.465 761.75 C-549.118 759.918 -551.826 758.205 -554.562 756.5 C-558.84 753.809 -562.808 750.901 -566.754 747.75 C-569.115 745.911 -571.537 744.2 -574 742.5 C-578.809 739.172 -583.419 735.634 -588 732 C-588.908 731.299 -589.815 730.597 -590.75 729.875 C-593.331 727.724 -595.623 725.377 -598 723 C-600.518 720.711 -603.055 718.445 -605.598 716.184 C-612 710.364 -612 710.364 -612 708 C-613.32 707.34 -614.64 706.68 -616 706 C-622.668 699.088 -628.609 691.669 -633.5 683.402 C-635.15 680.76 -637.043 678.421 -639 676 C-641.774 671.461 -643.918 666.885 -646 662 C-646.233 661.58 -646.233 661.58 -647.414 659.453 C-651.325 652.324 -653.085 645.803 -654.262 637.762 C-655.031 633.841 -656.407 630.651 -658 627 C-659.484 619.938 -659.184 612.808 -659.188 605.625 C-659.2 604.241 -659.212 602.856 -659.225 601.43 C-659.237 592.92 -658.372 585.938 -655.562 577.875 C-654.182 573.905 -653.361 569.938 -652.562 565.812 C-651.502 560.634 -650.233 557.243 -647 553 C-646.794 552.433 -646.794 552.433 -645.75 549.562 C-641.713 539.037 -635.964 527.851 -629 518.938 C-627.308 516.716 -625.65 514.464 -624.125 512.125 C-619.041 504.648 -613.139 497.631 -607 491 C-606.34 491 -605.68 491 -605 491 C-604.773 490.278 -604.546 489.556 -604.312 488.812 C-602.727 485.414 -600.739 483.548 -598 481 C-593.838 476.954 -589.992 472.668 -586.125 468.344 C-583.828 465.811 -581.417 463.417 -579 461 C-574.687 456.301 -570.455 451.537 -566.312 446.688 C-563.372 443.414 -560.418 440.749 -557 438 C-553.653 434.834 -550.615 431.446 -547.562 428 C-544.26 424.304 -540.886 421.091 -537 418 C-534.311 415.442 -531.877 412.852 -529.5 410 C-525.124 404.748 -520.182 400.442 -515 396 C-513.322 394.345 -511.657 392.676 -510 391 C-506 387 -502 383 -498 379 C-497.103 378.091 -496.206 377.182 -495.281 376.246 C-493 374 -493 374 -490.5 372.062 C-487.577 369.651 -485.394 366.933 -483 364 C-481.333 362.333 -479.667 360.667 -478 359 C-476.825 357.674 -475.659 356.34 -474.5 355 C-471.781 351.865 -468.973 348.898 -466 346 C-461.797 341.875 -457.816 337.73 -454.066 333.188 C-451.642 330.621 -448.986 328.376 -446.317 326.07 C-441.851 322.08 -437.662 317.805 -433.438 313.562 C-432.531 312.66 -431.624 311.757 -430.689 310.826 C-425.58 305.709 -420.716 300.48 -416 295 C-415.113 294.134 -414.226 293.267 -413.312 292.375 C-411 290 -411 290 -409 287 C-406.93 283.895 -404.698 281.567 -402 279 C-398.414 275.504 -395.189 271.86 -392 268 C-391.01 267.01 -390.02 266.02 -389 265 C-385.794 260.465 -383.045 255.707 -380.312 250.875 C-379.525 249.491 -378.737 248.106 -377.926 246.68 C-374.958 241.008 -374.838 236.38 -374.812 230.062 C-374.798 228.486 -374.784 226.909 -374.77 225.285 C-375.116 218.851 -376.85 215.31 -381.531 210.777 C-388.862 205.5 -399.031 201.879 -408.078 201.867 C-409.066 201.865 -410.054 201.863 -411.072 201.861 C-412.121 201.865 -413.169 201.87 -414.25 201.875 C-415.33 201.879 -416.411 201.883 -417.524 201.887 C-430.402 201.977 -442.744 202.767 -455.414 205.18 C-461.481 206.265 -467.577 207.074 -473.694 207.822 C-477.604 208.339 -481.039 209.015 -484.715 210.469 C-492.018 213.079 -499.707 213.549 -507.379 214.461 C-514.068 215.305 -519.692 216.555 -526 219 C-530.648 219.855 -535.347 220.307 -540.043 220.816 C-545.358 221.452 -549.253 222.383 -554 225 C-561.452 225.548 -561.452 225.548 -564 223 C-561.754 221.796 -559.508 220.591 -557.262 219.387 C-555 218 -555 218 -552 215 C-549.382 214.082 -546.731 213.259 -544.062 212.5 C-539.114 211.09 -536.158 210.119 -532 207 C-529.606 206.275 -527.185 205.637 -524.75 205.062 C-519.027 203.618 -514.221 201.79 -509 199 C-506 198 -503 197 -500 196 C-498.721 195.361 -497.442 194.721 -496.125 194.062 C-492.072 192.036 -488.056 190.505 -483.793 189 C-477.933 186.902 -472.193 184.49 -466.438 182.125 C-460.357 179.679 -454.152 177.589 -447.953 175.465 C-444.473 174.175 -441.297 172.687 -438 171 C-436.283 170.323 -434.553 169.676 -432.812 169.062 C-431.857 168.721 -430.902 168.379 -429.918 168.027 C-428.047 167.369 -426.175 166.715 -424.301 166.066 C-418.07 163.874 -412.155 161.249 -406.18 158.438 C-402.496 156.772 -398.765 155.4 -394.953 154.062 C-387.215 151.278 -379.56 148.192 -372.062 144.812 C-369.349 143.602 -366.596 142.476 -363.812 141.438 C-360 140 -360 140 -357.156 138.531 C-354.023 137.011 -351.033 136.014 -347.688 135.062 C-342.189 133.423 -337.201 131.412 -332 129 C-324.238 125.73 -316.334 123.067 -308.312 120.5 C-304 119 -304 119 -301.188 117.562 C-298.202 116.099 -295.346 115.083 -292.188 114.062 C-288.459 112.856 -284.873 111.574 -281.312 109.938 C-277 108 -277 108 -272.438 106.5 C-268 105 -268 105 -264 103 C-259.76 100.88 -255.492 99.497 -251 98 C-250.196 97.515 -249.391 97.031 -248.562 96.531 C-245.972 94.983 -243.542 94.025 -240.688 93.062 C-235.911 91.385 -231.516 89.295 -227 87 C-224.339 85.986 -221.672 84.986 -219 84 C-216.807 83.015 -214.613 82.029 -212.422 81.039 C-208.878 79.519 -205.261 78.231 -201.629 76.938 C-199.368 76.131 -197.12 75.288 -194.875 74.438 C-192.064 73.395 -189.227 72.425 -186.375 71.5 C-182 70 -182 70 -179.125 68.5 C-176.241 67.116 -173.71 66.346 -170.625 65.562 C-165.685 64.279 -161.536 62.373 -157 60 C-151.596 57.602 -146.188 55.385 -140.562 53.562 C-135.604 51.864 -131.008 49.715 -126.273 47.48 C-122.431 45.743 -118.531 44.324 -114.555 42.93 C-109.211 40.985 -104.098 38.507 -98.938 36.125 C-93.35 33.635 -87.601 31.57 -81.867 29.445 C-78.788 28.295 -75.733 27.111 -72.688 25.875 C-64.568 22.592 -56.307 19.769 -48 17 C-40.649 14.405 -40.649 14.405 -37.5 12.438 C-35 11 -35 11 -31.125 10.062 C-27 9 -27 9 -23.766 7.07 C-19.718 4.845 -16.119 3.83 -11.625 2.812 C-7.668 1.905 -3.819 0 0 0 Z " fill="#FFFFFF" transform="translate(1384,13)"/>
<path d="M0 0 C7.803 1.219 14.84 2.876 21.938 6.5 C25 8 25 8 29.562 9.5 C34 11 34 11 36.398 12.469 C40.116 14.657 44.049 15.693 48.16 16.938 C51 18 51 18 55 21 C57.332 21.809 57.332 21.809 59.812 22.438 C63.078 23.35 65.394 24.226 68.375 25.938 C72.496 28.282 76.577 29.567 81.078 31 C84.919 32.315 88.409 34.116 92 36 C94.982 37.377 97.989 38.685 101 40 C102.114 40.495 103.228 40.99 104.375 41.5 C108.332 43.137 112.337 44.583 116.367 46.027 C118.478 46.807 120.558 47.672 122.625 48.562 C126 50 126 50 130.625 51.5 C135 53 135 53 137.473 54.484 C139.912 55.947 142.123 56.852 144.812 57.75 C152.388 60.415 159.67 63.732 167 67 C168.506 67.66 170.011 68.32 171.562 69 C176.58 71.261 181.56 73.596 186.543 75.934 C189.892 77.486 193.247 79.019 196.613 80.535 C197.586 80.974 198.559 81.413 199.562 81.865 C201.481 82.729 203.401 83.59 205.323 84.448 C210.386 86.729 215.19 89.213 220 92 C222.663 93.009 225.33 94.009 228 95 C228.79 95.483 229.58 95.967 230.395 96.465 C233.893 98.526 237.54 99.66 241.379 100.938 C244 102 244 102 248 105 C249.444 105.474 250.887 105.949 252.375 106.438 C256.639 107.878 259.31 109.54 263 112 C263.743 112.248 263.743 112.248 267.5 113.5 C271.707 114.902 274.382 116.536 278 119 C280.661 120.014 283.328 121.014 286 122 C288.343 123.316 290.677 124.649 293 126 C294.176 126.495 295.351 126.99 296.562 127.5 C300 129 300 129 302.938 131 C306 133 306 133 310 134.5 C313.861 135.948 316.622 137.678 320 140 C322.658 141.35 325.325 142.684 328 144 C328.402 144.248 328.402 144.248 330.438 145.5 C333 147 333 147 337.562 149 C342 151 342 151 346 154 C347.114 154.474 348.228 154.949 349.375 155.438 C352.934 156.972 355.785 158.857 359 161 C360.155 161.495 361.31 161.99 362.5 162.5 C366.014 164.006 368.848 165.854 372 168 C373.999 169.002 375.999 170.002 378 171 C380.363 172.318 382.717 173.652 385.062 175 C386.25 175.681 387.437 176.361 388.66 177.062 C396.099 181.378 396.099 181.378 399.625 183.812 C403.44 186.285 407.384 188.401 411.387 190.551 C414.374 192.208 417.169 194.091 420 196 C420.99 196.495 421.98 196.99 423 197.5 C426.202 199.101 429.033 201.001 432 203 C434.328 204.343 436.662 205.675 439 207 C440.818 208.033 442.63 209.075 444.438 210.125 C445.302 210.623 446.167 211.12 447.059 211.633 C447.699 212.084 448.34 212.535 449 213 C449 213.66 449 214.32 449 215 C449.866 215.248 450.733 215.495 451.625 215.75 C455.246 217.091 457.826 218.803 461 221 C463.665 222.561 466.339 224.105 469.023 225.633 C469.676 226.084 470.328 226.535 471 227 C471 227.66 471 228.32 471 229 C471.866 229.248 472.733 229.495 473.625 229.75 C477.235 231.087 479.85 232.795 483 235 C483.681 235.413 483.681 235.413 487.125 237.5 C490.313 239.557 492.373 241.373 495 244 C496.927 245.209 498.857 246.415 500.805 247.59 C503.097 249.062 505.187 250.672 507.312 252.375 C510.592 254.983 513.942 257.287 517.5 259.5 C522.614 262.691 527.307 266.225 532 270 C537.408 274.288 542.903 278.371 548.574 282.305 C553.706 285.891 558.63 289.494 563 294 C565.639 296.365 568.322 298.68 571 301 C591.091 318.469 591.091 318.469 599 328 C599.619 328.619 600.237 329.238 600.875 329.875 C603.313 332.313 605.542 334.908 607.797 337.516 C611.548 341.745 615.448 345.838 619.328 349.949 C621.626 352.573 623.318 354.97 625 358 C625.927 359.423 626.865 360.84 627.812 362.25 C628.074 362.641 628.074 362.641 629.395 364.617 C630.426 366.148 631.465 367.675 632.512 369.195 C637.992 377.221 642.651 385.49 646.043 394.613 C647 397 647 397 648.48 399.535 C650.69 404.572 651.314 409.71 652.125 415.125 C652.46 417.274 652.796 419.422 653.133 421.57 C653.276 422.517 653.419 423.463 653.567 424.438 C653.94 426.646 654.457 428.828 655 431 C655.797 443.938 654.973 456.302 652.688 469.062 C652.475 470.257 652.262 471.451 652.042 472.682 C650.979 478.22 649.941 483.108 647 488 C645.272 491.311 643.828 494.477 642.562 498 C641.069 501.823 639.347 504.658 637 508 C636.381 509.093 635.763 510.186 635.125 511.312 C632.607 515.683 629.822 519.823 627 524 C626.526 524.722 626.051 525.444 625.562 526.188 C619.085 536.045 612.352 545.648 604 554 C603.175 554.99 602.35 555.98 601.5 557 C597.412 561.906 592.895 565.921 588 570 C586.313 571.646 584.645 573.312 583 575 C581.333 576.667 579.667 578.333 578 580 C577.175 580.846 576.35 581.691 575.5 582.562 C573.108 584.894 570.606 586.915 568 589 C567.134 589.887 566.268 590.774 565.375 591.688 C563 594 563 594 560 595 C559.34 596.32 558.68 597.64 558 599 C556.364 600.371 554.693 601.701 553 603 C552.237 603.763 551.474 604.526 550.688 605.312 C545.473 610.527 539.785 615.218 534.125 619.938 C533.199 620.71 532.274 621.482 531.32 622.277 C529 624 529 624 527 624 C526.34 625.32 525.68 626.64 525 628 C522.952 629.875 520.839 631.681 518.688 633.438 C514.582 636.804 510.722 640.217 507 644 C505.323 645.532 503.636 647.053 501.938 648.562 C499.6 650.641 497.293 652.698 495.113 654.941 C492.328 657.654 489.316 659.985 486.25 662.375 C485.01 663.343 483.77 664.311 482.492 665.309 C479.805 667.38 477.105 669.424 474.375 671.438 C471.631 673.521 469.383 675.543 467 678 C465.073 679.727 463.121 681.424 461.164 683.117 C459.689 684.401 458.226 685.698 456.773 687.008 C451.215 692 451.215 692 449 692 C448.34 693.32 447.68 694.64 447 696 C445.035 697.708 443.033 699.374 441 701 C440.381 701.619 439.762 702.237 439.125 702.875 C434.834 707.166 430.124 711.03 425.531 714.992 C424.25 716.099 422.969 717.206 421.688 718.312 C421.042 718.87 420.396 719.427 419.73 720 C414.744 724.317 409.88 728.752 405.074 733.27 C403 735 403 735 401 735 C400.34 736.32 399.68 737.64 399 739 C397.364 740.371 395.693 741.701 394 743 C391.143 745.71 388.565 748.507 386 751.5 C382.776 755.262 379.622 758.805 375.625 761.75 C371.791 765.037 368.966 768.931 366 773 C365.493 773.691 364.987 774.382 364.465 775.094 C356.824 786.015 350.485 797.069 352.562 810.688 C356.154 818.963 362.411 826.441 371.094 829.391 C371.821 829.532 371.821 829.532 375.5 830.25 C376.933 830.544 378.367 830.838 379.844 831.141 C381.561 831.435 383.28 831.721 385 832 C386.035 832.179 387.071 832.358 388.138 832.542 C399.668 834.33 411.113 834.35 422.75 834.312 C423.274 834.312 423.274 834.312 425.928 834.311 C443.941 834.285 461.668 833.194 479.591 831.342 C490.956 830.202 502.335 829.904 513.75 829.812 C514.776 829.799 515.801 829.786 516.858 829.773 C521.975 829.767 526.215 829.941 531 832 C531 832.99 531 833.98 531 835 C529.744 835.242 528.489 835.485 527.195 835.734 C511.966 838.758 511.966 838.758 507.062 841.062 C501.622 843.495 495.866 844.005 490.017 844.785 C482.939 845.766 476.141 847.344 469.237 849.162 C464.036 850.521 458.856 851.635 453.562 852.562 C448.749 853.415 444.207 854.477 439.562 856 C434.593 857.624 429.721 858.646 424.562 859.5 C418.041 860.579 411.845 862.064 405.52 863.965 C399.07 865.862 392.527 867.398 386 869 C378.272 870.911 370.554 872.838 362.875 874.938 C355.556 876.917 348.176 878.575 340.763 880.162 C336.674 881.06 332.901 882.038 328.977 883.531 C324.292 885.261 319.72 886.104 314.812 886.938 C307.682 888.217 300.866 889.777 293.98 892.066 C290.783 893.068 287.588 893.796 284.312 894.5 C280.39 895.361 276.859 896.379 273.188 898 C267.607 900.399 261.849 901.192 255.891 902.219 C251.596 903.081 247.767 904.424 243.707 906.031 C240.668 907.119 237.654 907.818 234.5 908.5 C230.363 909.397 226.509 910.47 222.562 912 C218.392 913.605 214.321 914.629 209.938 915.5 C204.829 916.521 200.398 917.956 195.641 920.027 C191.314 921.621 186.824 922.367 182.297 923.191 C178.845 924.038 176.162 925.401 173 927 C170.62 927.702 168.222 928.346 165.812 928.938 C161.176 930.12 156.712 931.398 152.25 933.125 C147.798 934.832 143.527 935.724 138.801 936.312 C136 937 136 937 132.273 938.934 C127.682 941.154 123.288 942.187 118.312 943.062 C112.945 944.019 108.678 945.144 104 948 C101.144 948.726 98.265 949.364 95.375 949.938 C89.183 951.243 83.4 952.75 77.52 955.062 C73.981 956.379 70.366 957.287 66.703 958.191 C64 959 64 959 60.711 960.465 C55.287 962.709 49.687 963.721 43.961 964.938 C40.334 965.91 38.147 967.078 35 969 C32.499 969.72 29.975 970.36 27.438 970.938 C21.384 972.377 15.561 974.077 9.691 976.129 C7.135 976.956 4.634 977.544 2 978.062 C-2 979 -2 979 -6 982 C-11.605 983.401 -17.437 983.854 -23 982 C-23 981.01 -23 980.02 -23 979 C-20.918 977.754 -20.918 977.754 -18.188 976.562 C-13.945 974.707 -12.949 973.932 -10 970 C-7.804 968.996 -5.605 967.992 -3.352 967.125 C-1 966 -1 966 1.301 964.148 C4.605 961.518 8.101 959.638 11.812 957.625 C17.616 954.407 22.805 951.101 28 947 C30.97 944.954 33.985 942.979 37 941 C41.408 938.098 45.716 935.082 50 932 C53.361 929.583 56.718 927.187 60.168 924.898 C62.652 923.233 64.982 921.495 67.312 919.625 C74.334 914.116 81.853 909.425 89.422 904.711 C92.084 902.944 94.528 901.022 97 899 C105.142 892.757 113.642 887.212 122.305 881.723 C126.991 878.728 131.604 875.624 136.207 872.504 C140.159 869.839 144.144 867.296 148.25 864.875 C151.747 862.801 154.854 860.582 158 858 C160.97 855.954 163.985 853.978 167 852 C168.176 851.216 169.351 850.433 170.562 849.625 C171.367 849.089 172.171 848.553 173 848 C171 844 171 844 170 843 C170.432 835.511 172.888 832.646 178.688 828.125 C179.384 827.621 180.08 827.117 180.797 826.598 C183.832 824.397 186.773 822.082 189.727 819.773 C191.196 818.627 192.67 817.486 194.148 816.352 C199.521 812.22 204.736 807.921 209.926 803.562 C213.814 800.322 217.763 797.16 221.723 794.008 C224 792 224 792 227 788 C228.32 787.34 229.64 786.68 231 786 C232.689 784.356 234.353 782.686 236 781 C240.832 776.695 245.754 773.07 251.199 769.598 C255.62 766.726 259.402 763.898 263 760 C266.498 756.413 270.153 753.206 274 750 C276.689 747.442 279.123 744.852 281.5 742 C285.778 736.866 290.593 732.563 295.688 728.25 C300.788 723.906 305.82 719.506 310.781 715.004 C312.793 713.187 314.827 711.401 316.875 709.625 C326.675 701.048 336.013 692.09 345.15 682.813 C349.932 677.979 354.85 673.44 360 669 C363.172 665.942 366.239 662.782 369.312 659.625 C371.73 657.264 374.214 655.044 376.75 652.812 C381.12 648.911 385.049 644.774 388.895 640.359 C390.349 638.729 391.861 637.149 393.414 635.613 C396.311 632.686 398.921 629.597 401.562 626.438 C405.599 621.687 409.734 617.175 414.188 612.812 C418.718 608.371 422.764 603.768 426.703 598.801 C430.121 594.633 433.818 590.739 437.52 586.824 C441.021 582.838 443.682 578.523 446.438 574 C449 570 449 570 451.562 566.938 C454.203 563.755 456.034 560.643 458 557 C458.275 556.502 458.275 556.502 459.664 553.98 C463.074 547.748 466.202 541.528 469 535 C469.376 534.278 469.753 533.556 470.141 532.812 C473.475 526.229 475.391 519.423 477.25 512.312 C477.508 511.326 477.767 510.34 478.033 509.324 C482.217 492.778 483.212 474.383 478 458 C477.415 455.657 476.83 453.313 476.254 450.967 C474.249 442.906 471.841 435.389 468 428 C467.361 426.68 466.721 425.36 466.062 424 C455.484 403.484 455.484 403.484 448 396 C446.998 394.335 445.998 392.668 445 391 C443.592 389.206 442.152 387.436 440.688 385.688 C437.915 382.346 435.202 378.994 432.625 375.5 C430 372 430 372 427 369 C425.654 367.365 424.322 365.717 423 364.062 C418.708 358.778 414.181 353.762 409.555 348.77 C407.499 346.541 405.484 344.292 403.5 342 C398.781 336.563 393.878 331.294 389 326 C387.944 324.85 386.889 323.7 385.801 322.516 C384.753 321.376 383.705 320.237 382.625 319.062 C381.669 318.022 380.712 316.982 379.727 315.91 C377.94 314.003 376.123 312.124 374.273 310.277 C371.977 307.976 370.029 305.537 368 303 C365.446 300.312 362.85 297.875 360 295.5 C356.316 292.43 353.003 289.294 350.062 285.5 C347.651 282.577 344.933 280.394 342 278 C340.332 276.335 338.665 274.668 337 273 C334.776 270.931 332.547 268.87 330.312 266.812 C323.416 260.43 316.758 253.828 310.167 247.13 C307.024 243.95 303.931 240.943 300.473 238.098 C298 236 298 236 298 234 C296.68 233.34 295.36 232.68 294 232 C291.709 229.983 289.464 227.913 287.25 225.812 C281.396 220.298 275.549 214.823 269.25 209.812 C266.996 207.997 265.014 206.077 263 204 C259.818 200.736 256.565 197.834 253 195 C252.394 194.386 251.788 193.773 251.164 193.141 C248.863 190.865 246.454 188.847 243.938 186.812 C242.968 186.025 241.999 185.237 241 184.426 C239.063 182.86 237.126 181.295 235.188 179.73 C229.802 175.362 224.598 170.861 219.473 166.191 C216.207 163.297 212.8 160.605 209.375 157.902 C205.814 155.05 202.409 152.032 199 149 C188.937 140.152 178.797 131.401 168.391 122.957 C166.337 121.276 164.321 119.548 162.312 117.812 C159.322 115.273 156.255 112.898 153.102 110.566 C150.876 108.908 148.686 107.209 146.5 105.5 C140.993 101.209 135.514 96.948 129.625 93.188 C125.102 90.227 121.253 86.708 117.293 83.043 C114.696 80.729 111.922 78.878 109 77 C107.667 75.667 106.333 74.333 105 73 C103.336 71.995 101.669 70.996 100 70 C98.257 68.769 96.529 67.518 94.812 66.25 C86.943 60.487 79 54.964 70.746 49.766 C65.001 46.072 59.463 42.097 54 38 C52.845 37.34 51.69 36.68 50.5 36 C47 34 47 34 43 31 C41.989 30.505 40.979 30.01 39.938 29.5 C37 28 37 28 34 25 C33.257 24.67 33.257 24.67 29.5 23 C25 21 25 21 22 18 C20.721 17.361 19.443 16.721 18.125 16.062 C14 14 14 14 11.438 11.938 C9 10 9 10 5.312 8.688 C2 7 2 7 0.562 3.312 C0.377 2.219 0.191 1.126 0 0 Z " fill="#FFFFFF" transform="translate(33,29)"/>
  </g>
</svg>
